<?xml version="1.0" encoding="UTF-8" standalone="no"?>
<svg width="2500" height="1200" version="1.1" xmlns="http://www.w3.org/2000/svg" xmlns:svg="http://www.w3.org/2000/svg">
<style>
#map-bg {
	fill: white;
	stroke: none;
	stroke-width: 0;
	paint-order: markers fill stroke;
}
.nation-color { 
	fill-opacity: 1;
	paint-order: markers fill stroke;
	stroke: black;
	stroke-dasharray: none;
	stroke-linecap: square;
	stroke-width: 1;
}
#nations-list text {
	font-family: sans;
	font-size: 16pt;
}
text.territory-label, #nations-title {
	font-family: sans;
	font-size: 32pt;
}
.territory {
	fill: #bbbbbb;
	fill-opacity: 1;
	stroke-width: 2.03216;
}
#DC {
	stroke: #ffffff;
	stroke-width: 2;
}
.army-placeholder {
	display: none;
	fill: #4b4b4b;
	stroke-width: 2;
}
.extra-territory-containers {
	fill: #000;
	fill-opacity: 0;
	stroke: #000;
	stroke-width: 4;
	stroke-opacity: 1;
}
.state-pointer-line {
	fill: none;
	stroke: #000000;
	stroke-width: 2;
	stroke-linecap: butt;
	stroke-linejoin: miter;
	stroke-opacity: 1;
}
#nations-list-bounds {
	fill: #ffffff;
	stroke: #000000;
	stroke-opacity: 1;
}
</style>

	<!-- State paths and territory container borders based on https://commons.wikimedia.org/wiki/File:Blank_map_of_the_U.S._with_territories.svg -->

	<!--
	Using this rect for "setting" the image background color instead of setting it on the svg element,
	because some SVG renderers (like ffmpeg) don't support the svg element's background color.
	-->
	<rect id="map-bg" width="100%" height="100%" x="0" y="0" />

	<!-- State paths -->
	<path id="HI" class="territory" d="m 473.67094,1050.2482 3.94224,-7.2275 4.59931,-0.657 0.65704,1.6426 -4.27079,6.2419 z m 20.69685,-7.556 12.48382,5.2563 4.27076,-0.657 3.28521,-7.8845 -1.31407,-6.8991 -8.54158,-0.9855 -8.21303,3.6138 z m 62.41905,20.3683 7.55597,11.1697 4.92783,-0.657 2.29965,-0.9856 2.95669,2.6282 7.55599,-0.3285 1.97114,-2.9567 -5.9134,-3.6137 -3.94225,-7.556 -4.27078,-7.2275 -11.82676,5.9134 z m 41.06516,18.0687 2.62817,-3.9423 9.52711,1.9712 1.3141,-0.9856 12.4838,1.3141 -0.65704,2.6282 -5.25634,2.9566 -8.87008,-0.657 z m 10.84121,10.5127 3.94226,7.8845 6.24188,-2.2997 0.65706,-3.2852 -3.28521,-4.2708 -7.55599,-0.657 z m 14.12641,-2.2997 4.5993,-5.9134 9.52711,4.9279 8.87007,2.2996 8.87009,5.5849 v 3.9422 l -7.22745,3.6138 -9.85567,1.9711 -4.9278,-2.9567 z m 33.83771,31.5381 3.2852,-2.6282 6.89896,3.2852 15.44049,7.2275 6.89896,4.2708 3.28519,4.9278 3.94226,8.8701 8.21304,5.2563 -0.65704,2.6282 -7.88452,6.5704 -8.54155,2.9567 -2.95669,-1.3141 -6.24192,3.6137 -4.9278,6.5705 -4.5993,5.9133 -3.61375,-0.3285 -7.22746,-5.2563 -0.65704,-9.1986 1.31408,-4.9278 -3.28521,-11.4983 -4.27079,-3.6137 -0.32851,-5.2564 4.5993,-1.9711 4.27079,-6.2419 0.98555,-1.9711 -3.28521,-3.6138 z" />
	<path id="AK" class="territory" d="m 321.23705,916.86844 -0.65704,173.45936 3.28519,1.9711 6.24192,0.3285 2.95667,-2.2996 h 5.25634 l 0.32854,5.9134 14.12641,13.7979 0.98558,5.2563 6.89894,-3.9422 1.31409,-0.3286 0.65704,-6.2419 2.95667,-3.2852 2.29967,-0.3285 3.94225,-2.9567 6.2419,4.2708 1.31409,5.9134 3.94225,2.2996 2.29965,4.9278 7.88454,3.6138 6.89893,12.1553 5.58484,7.8845 4.59931,5.5848 2.95671,7.556 10.18414,3.6138 10.51271,4.2707 1.97111,8.8701 0.98556,6.2419 -1.97111,6.899 -3.61375,4.5993 -3.28521,-1.6426 -2.95669,-6.242 -5.58486,-2.9566 -3.61373,-2.2997 -1.64262,1.6426 2.9567,5.5849 0.32851,7.556 -2.29965,0.9855 -3.94225,-3.9422 -4.27076,-2.6282 0.98556,3.2852 2.62815,3.6138 -1.6426,1.6426 c 0,0 -1.64259,-0.6571 -2.62815,-1.9712 -0.9856,-1.314 -4.27078,-6.8989 -4.27078,-6.8989 l -1.97114,-4.5993 c 0,0 -0.65704,2.6282 -1.97113,1.9711 -1.3141,-0.657 -2.62817,-2.9567 -2.62817,-2.9567 l 3.61373,-3.9422 -2.95669,-2.9567 v -10.1842 h -1.6426 l -1.64259,6.8989 -2.29968,0.9856 -1.97111,-7.556 -1.31409,-7.556 -1.64262,-0.9855 0.65706,11.4982 v 2.2997 l -2.95671,-2.6282 -7.22746,-12.1553 -4.27078,-0.9855 -1.31408,-7.556 -3.28521,-5.9134 -3.28523,-2.2997 v -4.5993 l 4.27079,-2.6281 -0.98556,-0.6571 -5.25634,1.3141 -6.89896,-4.9278 -5.25634,-5.9134 -9.85563,-5.2563 -8.21305,-5.2564 2.62819,-6.5704 v -3.2852 l -3.61375,3.2852 -5.91338,2.2996 -7.55599,-2.2996 -11.49826,-4.9278 h -11.16971 l -1.31407,0.9855 -13.14086,-7.8845 -4.27078,-0.657 -5.58486,-11.8268 -7.22748,0.657 -7.22748,2.9567 0.98558,9.1986 2.29963,-5.9133 1.97116,0.657 -2.95671,8.8701 6.57041,-5.5849 1.3141,3.2852 -7.88451,8.8701 -2.62817,-0.657 -0.98556,-3.9423 -2.62817,-1.6426 -2.62817,2.2996 -5.58487,-3.6137 -6.24191,4.2708 -3.61371,4.2708 -6.89896,4.2708 -9.52713,-0.3286 -0.98555,-4.2707 7.55597,-1.3141 v -2.6282 l -4.5993,-1.3141 1.97115,-4.9278 4.59928,-7.8845 v -3.6138 l 0.32852,-1.6426 8.87009,-4.5993 1.97112,2.6282 h 5.58488 l -2.62817,-5.2563 -7.55602,-0.6571 -10.18414,5.5849 -4.92783,6.8989 -3.61373,5.2564 -2.29965,4.5993 -8.54155,2.9567 -6.24192,5.2563 -0.65704,3.2852 4.5993,1.9712 1.64262,4.2707 -5.58488,6.5704 -13.14083,8.5416 -15.76904,8.5416 -4.27078,2.2996 -10.8412,2.2997 -10.84122,4.5993 3.61374,2.6281 -2.9567,2.9567 -0.98556,2.2997 -5.58486,-1.9712 -6.57042,0.3286 -1.64261,4.5993 h -1.97112 l 0.65704,-4.9279 -7.22748,2.6282 -5.91338,1.9711 -6.89895,-2.6281 -5.91338,3.9422 h -6.570427 l -4.270779,2.6282 -3.285213,1.6426 -4.270776,-0.657 -5.256343,-2.2997 -4.599298,1.3141 -1.971128,1.9711 -3.285215,-2.2996 v -3.9423 l 6.241908,-2.6282 12.812331,1.3141 8.870076,-3.2852 4.270778,-4.2708 5.913386,-1.314 3.61373,-1.6427 5.58487,0.3286 3.28521,2.6281 1.97112,-0.657 4.5993,-5.5848 6.24192,-1.9712 6.89893,-1.3141 2.62818,-0.657 1.31408,0.9855 h 1.64262 l 2.62816,-7.556 8.21304,-2.9566 3.94226,-7.556 4.5993,-9.1986 3.28522,-2.9567 0.65704,-5.2564 -3.28522,2.6282 -6.89896,1.3141 -1.31408,-4.9278 -2.62816,-0.6571 -1.97114,1.9712 -0.32852,5.9134 -2.9567,-0.3286 -2.95668,-11.8267 -2.62818,2.6281 -2.29964,-0.9855 -0.65704,-3.9423 -8.21304,0.3285 -4.27077,2.2997 -5.25634,-0.6571 2.95668,-2.9567 0.98556,-5.2563 -1.31408,-3.9423 2.9567,-1.9711 2.62815,-0.3285 -1.31407,-3.6137 v -8.8701 l -1.97112,-1.9711 -1.64262,2.9566 h -12.48381 l -2.95669,-2.6281 -1.31408,-7.8845 -4.27078,-7.2275 v -1.9711 l 4.27078,-1.6426 0.32852,-4.2708 2.29964,-2.2997 -1.6426,-0.9855 -2.62817,0.9855 -2.29965,-5.5849 1.97113,-10.1842 9.1986,-6.5704 5.25633,-3.2852 3.94226,-7.556 5.58488,-2.6282 5.25633,2.2997 0.65704,4.9278 4.92782,-0.6571 6.57042,-4.9278 3.28522,1.3141 1.97112,1.3141 h 3.28522 l 4.5993,-2.6282 1.64262,-8.87006 c 0,0 0.65704,-5.91336 1.97112,-6.89893 1.31408,-0.98556 1.97112,-1.97112 1.97112,-1.97112 l -2.29964,-3.94226 -5.25634,1.64261 -6.57044,1.64259 -3.94226,-0.98555 -7.22746,-3.61375 -10.18415,-0.32852 -7.22748,-7.55597 0.98556,-7.88452 1.3141,-4.92782 -4.27078,-3.61373 -3.94226,-7.55601 0.98556,-1.6426 13.79789,-0.98555 h 4.27078 l 1.97112,1.97111 h 1.3141 l -0.32852,-3.28521 7.8845,-1.31408 5.25634,0.65704 2.9567,2.29965 -2.9567,4.27079 -0.98556,2.95667 5.58488,3.28523 10.18416,3.61373 3.61374,-1.97112 -4.5993,-8.87007 -1.97114,-6.57043 1.97114,-1.64262 -6.89896,-3.94225 -0.98556,-2.29967 0.98556,-3.28519 -1.6426,-7.88451 -5.9134,-9.52713 -4.92782,-8.54155 5.9134,-3.94227 h 6.57042 l 3.61374,1.3141 8.54155,-0.32852 7.55599,-7.22746 2.29966,-6.24192 7.556,-4.92782 3.28519,1.97113 5.58486,-1.31409 7.556,-4.27079 2.29967,-0.32852 1.97111,1.64264 9.19859,-0.32854 5.58486,-6.2419 h 2.29965 l 7.22748,4.9278 3.94225,4.27079 -0.98556,2.29965 1.31408,2.29965 3.28522,-3.2852 7.88452,0.65703 0.65704,7.55598 3.94226,2.95671 14.45493,1.31407 12.81234,8.54155 2.95667,-1.97111 10.51271,5.25634 4.27076,-1.31407 3.94227,-1.64264 9.85563,3.94227 z m -233.907216,58.80532 4.270778,10.84121 -0.328523,1.97113 -5.913384,-0.65706 -3.613734,-8.21303 -3.613734,-2.95667 h -4.927821 l -0.328519,-5.25636 3.613734,-4.92782 2.29965,4.92782 2.95669,2.95669 z m -5.256342,68.00404 7.555993,1.6426 7.555988,1.9711 1.642609,1.9711 -3.285213,7.556 -6.241907,-0.3285 -6.898947,-7.2275 z m -42.050731,-28.5815 2.299652,5.2563 2.299648,3.2853 -2.299648,1.6426 -4.27078,-6.2419 v -3.9423 z m -27.924313,148.4918 6.898948,-4.5993 6.898948,-1.9712 5.256342,0.6571 0.985563,3.2852 3.942257,0.9855 3.942255,-3.9422 -0.657042,-3.2852 5.584863,-1.3141 5.913384,5.2563 -2.29965,3.6138 -8.870074,2.2996 -5.584866,-0.9855 -7.555988,-2.2997 -8.870077,2.9567 -3.285213,0.657 z m 99.541962,-9.1986 3.28522,3.9422 4.27077,-3.2852 -2.95669,-2.6282 z m 5.91339,6.2418 2.29964,-4.5992 4.27078,0.657 -1.6426,3.9422 z m 47.96411,-3.9422 2.9567,3.6137 1.97114,-2.2996 -1.64262,-3.9423 z m 17.74016,-25.2961 2.29966,11.8267 5.91337,1.6426 10.18416,-5.9134 8.87008,-5.2563 -3.28519,-4.9278 0.98555,-4.9278 -4.27078,2.6281 -5.91338,-1.6426 3.2852,-2.2996 3.94225,1.6426 7.88452,-3.6138 0.98557,-2.9566 -4.92782,-1.6426 1.6426,-3.9423 -5.58487,3.9423 -9.52711,7.2274 -9.85563,5.9134 z m 86.07259,-40.4082 4.92782,-2.9567 -1.97113,-3.6137 -3.61373,1.9711 z" />
	<path id="FL" class="territory" d="m 1535.0876,900.26924 4.6041,14.87256 7.5794,19.79782 10.8411,19.05413 7.556,12.81228 9.8556,11.16968 8.213,7.55596 3.2852,5.91336 -2.2997,2.62815 -1.6426,2.62815 5.9134,15.11187 5.9133,5.9134 5.2564,10.8411 7.2274,11.8269 9.1986,16.7545 2.6281,15.4404 0.9856,24.3105 1.3141,3.6137 -0.6571,6.8989 -4.9278,2.6282 0.6571,3.9422 -1.3141,3.9422 0.657,4.9278 0.9856,3.9423 -5.5848,6.5704 -6.2419,2.9566 -7.8845,0.3286 -2.9567,3.2852 -4.9278,1.9711 -2.6281,-0.9856 -2.2997,-1.9711 -0.657,-5.9134 -1.6426,-6.8989 -6.8989,-10.5126 -7.2275,-4.5993 -7.8845,-0.657 -1.6425,2.6281 -6.2419,-8.87 -1.3141,-7.2274 -5.2563,-8.213 -3.6137,-2.2997 -3.2852,4.2708 -3.6137,-0.657 -4.2708,-10.1842 -5.9134,-7.8844 -5.9133,-10.8412 -5.2563,-6.2419 -7.2275,-7.5559 4.2708,-4.9278 6.5704,-11.1698 -0.3285,-3.2852 -9.1986,-1.9711 -3.2852,1.3141 0.6571,1.314 5.2563,1.9712 -2.9567,9.1986 -1.6426,0.9856 -3.6137,-8.2131 -2.6282,-9.8556 -0.657,-5.5849 2.9566,-9.527 v -19.38268 l -6.2418,-7.55596 -2.6282,-6.24187 -10.5126,-2.62816 -3.9423,-1.31407 -3.2852,-5.25632 -6.8989,-3.28521 -2.2996,-6.89892 -5.5849,-1.97111 -4.9278,-7.55596 -8.5415,-2.95667 -5.9133,-2.95669 h -5.2563 l -8.213,1.64262 -0.3286,3.94223 1.6427,1.97111 -0.9856,2.29965 -6.2419,-0.32852 -7.5559,7.22744 -7.2275,3.94222 h -7.8845 l -6.5704,2.62817 -0.657,-5.58484 -3.2852,-3.94224 -5.9133,-2.29963 -3.2852,-2.95669 -16.426,-7.88448 -15.4405,-3.61371 -8.87,1.31408 -12.1552,0.98556 -12.1553,4.27076 -7.0703,1.24563 -0.4835,-16.35837 -5.2564,-3.94223 -3.6137,-3.61372 0.6571,-6.2419 20.6967,-2.62815 51.9062,-5.91336 13.7979,-1.31408 11.0468,0.56955 5.2563,7.8845 2.9567,2.95667 16.4568,1.04701 21.9874,-1.31408 43.7166,-2.62817 11.0666,-1.37043 9.3017,0.0563 0.3285,5.91336 7.771,1.6426 0.657,-9.76812 -3.2852,-9.19859 1.9404,-1.48901 10.3898,0.92413 z m 25.4942,269.06826 4.9279,-1.3141 2.6281,-0.4927 2.9567,-4.7636 4.7636,-3.2852 2.6281,0.9856 3.4495,0.657 0.8213,2.1354 -7.0632,2.4639 -8.5415,2.9567 -4.7636,2.4639 z m 27.4315,-10.1841 2.464,2.1354 5.5848,-4.2708 10.8412,-8.5415 7.556,-7.8846 5.0921,-13.4693 1.9711,-3.4495 0.3285,-6.8989 -1.4783,0.9855 -1.9712,5.7492 -2.9567,9.3628 -6.5704,10.6769 -8.87,8.5416 -6.899,3.9422 z" />
	<path id="SC" class="territory" d="m 1546.9426,834.08402 -3.6113,1.97018 -5.2563,-2.62817 -1.3141,-4.27076 -2.6282,-7.22744 -4.5993,-4.27078 -5.2563,-1.31408 -3.2852,-9.85559 -5.5848,-12.15526 -8.5416,-3.94226 -4.2707,-3.94223 -2.6282,-5.25632 -4.2708,-3.94227 -4.5992,-2.62815 -4.5993,-5.91336 -6.2419,-4.59926 -9.1986,-3.61375 -0.9856,-2.95667 -4.9277,-5.91336 -0.9856,-2.95671 -6.8989,-10.51262 -6.899,0.32851 -8.213,-4.92782 -2.6281,-2.62815 -0.6571,-3.61373 1.6426,-3.94222 4.5993,-1.97116 -0.657,-4.27074 12.4837,-5.25633 18.3972,-9.19856 14.7834,-1.64262 33.5091,-0.98556 4.5993,3.94225 3.2851,6.57042 8.8701,-0.98556 25.6246,-2.95671 5.9133,1.64262 25.6246,15.44046 20.5413,16.50455 -11.0167,11.09222 -5.2563,12.48375 -0.9856,12.81228 -3.2852,1.6426 -2.2996,5.58484 -4.9278,1.31407 -4.2708,7.22744 -5.5848,5.58484 -4.5993,6.89891 -3.2852,1.6426 -7.2274,6.89892 -5.9134,0.32851 1.9711,6.5704 -10.1841,11.16968 z" />
	<path id="GA" class="territory" d="m 1401.4105,722.38617 -9.8556,1.64261 -17.0831,2.29964 -17.4115,1.80685 v 4.43502 l 0.3285,4.27079 1.3141,6.89892 6.8989,16.09748 4.9278,20.03975 2.9567,12.48378 3.2852,9.85559 2.9567,14.12637 4.2707,12.8123 5.2564,6.89893 0.9855,6.89892 3.9423,1.64259 0.3285,4.27079 -3.6137,9.85559 -0.9856,6.57041 -0.3285,3.94225 3.2852,8.87005 0.657,10.84116 -1.6426,4.92781 1.3141,1.64261 2.9567,1.6426 1.3141,6.89891 5.2563,7.8845 2.9567,2.95667 16.0975,0.32851 21.9874,-1.31407 43.7166,-2.62815 11.0666,-1.37043 9.3017,0.0563 0.3285,5.91336 5.2563,1.6426 0.6571,-8.87005 -3.2852,-9.19857 2.2996,-3.28519 11.8267,1.64259 10.1149,0.64578 -1.5757,-12.80014 4.5992,-20.36823 2.9567,-8.54153 -0.9856,-5.25631 6.7761,-12.68941 -1.037,-2.74683 -3.8884,1.43182 -5.2563,-2.62819 -1.3141,-4.27076 -2.6281,-7.22744 -4.5993,-4.27077 -5.2563,-1.31407 -3.2852,-9.85561 -5.9441,-12.87373 -8.5415,-3.94224 -4.2708,-3.94225 -2.6282,-5.25632 -4.2707,-3.94225 -4.5993,-2.62817 -4.5993,-5.91336 -6.2419,-4.59926 -9.1986,-3.61375 -0.9855,-2.95667 -4.9278,-5.91336 -0.9856,-2.95669 -6.8989,-9.9738 -6.8989,0.32854 -8.3927,-6.18516 -2.6281,-2.62815 -0.6571,-3.61373 1.6426,-3.94223 4.7789,-2.51 -2.3043,-2.48374 0.1583,-0.59112 -11.8268,1.97112 -14.1263,1.64259 z" />
	<path id="AL" class="territory" d="m 1271.3144,943.48113 -3.2831,-30.88171 -5.5849,-38.10835 0.3285,-28.58128 1.6426,-63.07589 -0.3285,-33.8376 0.3355,-13.04455 15.762,-0.75331 56.5055,-5.2563 18.132,-1.34569 -0.3003,4.43502 0.3285,4.27079 1.3141,6.89891 6.8989,16.09749 4.9278,20.03975 2.9567,12.48378 3.2852,9.85561 2.9567,14.12637 4.2708,12.81227 5.2563,6.89896 0.9855,6.8989 3.9423,1.64261 0.3285,4.27077 -3.6137,9.8556 -0.9856,6.57042 -0.3285,3.94223 3.2852,8.87007 0.6571,10.84114 -1.6427,4.92783 1.3141,1.64259 2.9567,1.64259 2.1038,5.15208 h -12.8123 l -13.7978,1.31409 -51.9063,5.91334 -21.1579,2.85878 -0.1959,7.62548 3.6137,3.61372 5.2563,3.94223 1.1804,16.12608 -11.2623,5.22854 -5.5848,-0.65704 5.5848,-3.94224 v -1.97112 l -6.2419,-12.15524 -4.5993,-1.31407 -2.9566,8.87003 -2.6282,5.58484 -1.3141,-0.32852 z" />
	<path id="NC" class="territory" d="m 1690.973,601.47076 3.475,9.54831 7.2274,13.14079 4.9278,4.9278 1.3141,4.59929 -4.9278,0.32852 1.6426,1.31407 -0.6571,8.54151 -5.2563,2.62816 -1.3141,4.27076 -2.6281,5.91336 -7.556,3.28519 -4.9278,-0.65704 -2.9567,-0.32852 -3.2852,-2.62815 0.6571,2.62815 v 1.97114 h 3.9422 l 1.6426,2.62815 -3.9422,12.81227 h 8.5415 l 1.3141,3.28519 4.5993,-4.59926 2.6281,-0.98558 -3.9422,7.22744 -6.2419,9.8556 h -2.6282 l -2.2996,-0.98555 -5.5848,1.31407 -10.5127,4.9278 -13.1408,10.84115 -6.8989,9.52707 -3.9422,13.14079 -0.9856,4.9278 -9.5271,0.98556 -11.0816,2.71631 -20.2127,-16.66885 -25.6246,-15.44045 -5.9133,-1.64261 -25.6246,2.95669 -8.6904,1.52442 -3.2852,-6.57042 -6.0363,-4.30147 -33.509,0.98556 -14.7835,1.64259 -18.3971,9.19859 -12.4838,5.2563 -3.2852,0.65704 -11.8267,1.97113 -14.1264,1.6426 -13.7978,0.98558 1.0162,-8.23905 3.6138,-2.95667 5.5848,-1.31409 1.3141,-7.55598 8.5415,-5.58482 7.8845,-2.95671 8.5416,-7.22743 8.87,-4.27077 1.3141,-6.2419 7.8845,-7.88447 1.314,-0.32852 c 0,0 0,2.29965 1.6426,2.29965 1.6426,0 3.9423,0.65704 3.9423,0.65704 l 4.5993,-7.22746 4.2707,-1.31409 4.5993,0.65706 3.2852,-7.22744 5.9134,-5.25634 0.9856,-4.27077 v -8.04875 l 9.1985,1.47835 14.5017,-2.62817 32.1482,-3.94224 34.8232,-5.25633 40.4841,-8.12985 40.1012,-8.46358 23.0944,-5.68279 z m 7.9162,67.03651 5.2563,-5.09209 6.4061,-5.25634 3.121,-1.31407 0.3285,-4.10651 -1.3141,-12.4838 -2.9566,-4.76354 -1.3141,-3.77799 1.4783,-0.4928 5.5849,11.16972 0.8213,9.03431 -0.3285,6.89896 -6.899,3.12093 -5.7491,4.92782 -2.2996,2.46392 z" />
	<path id="TN" class="territory" d="m 1416.5225,646.49797 -105.4551,10.18414 -32.0259,3.61371 -9.391,1.04191 -7.8611,-0.0563 v 7.88449 l -17.0831,0.98556 -14.1263,1.31407 -22.5489,0.1075 -0.538,11.85853 -4.3451,12.75289 -2.0222,6.12902 -2.7408,8.90301 -0.6571,5.25632 -8.213,4.59926 2.9567,7.22746 -1.9711,8.87005 -1.9679,1.60469 14.7454,-0.39487 48.9495,-3.94222 10.8413,-0.32854 16.4259,-0.98558 56.5055,-5.2563 20.6686,-1.64261 17.1112,-1.97112 17.0831,-2.29963 9.8556,-1.64261 -0.2653,-9.16382 3.6137,-2.95667 5.5848,-1.31408 1.3141,-7.55597 8.5416,-5.58484 7.8844,-2.95671 8.5416,-7.22744 8.87,-4.27075 1.7753,-7.16429 8.8068,-7.88447 1.3141,-0.32852 c 0,0 0,2.29963 1.6426,2.29963 1.6426,0 3.9423,0.65704 3.9423,0.65704 l 4.5993,-7.22746 4.2707,-1.31407 4.5993,0.65703 3.2852,-7.22743 4.2992,-4.56456 1.2162,-1.96477 0.3584,-7.99069 -3.015,-0.58559 -4.9278,3.94227 -16.0975,0.32852 -24.3764,3.86248 z" />
	<path id="RI" class="territory" d="m 1776.2494,360.35842 -0.9814,-8.54401 -1.6426,-8.87005 -3.4494,-11.99098 11.6624,-3.12095 3.2852,2.29964 6.899,8.87005 5.9112,9.03556 -5.9155,3.12221 -2.6281,-0.32851 -2.2996,3.61372 -4.9279,3.94223 z" />
	<path id="CT" class="territory" d="m 1774.4679,360.8196 -1.2753,-8.54399 -1.6426,-8.87005 -3.2852,-12.15526 -8.4373,1.83846 -44.3502,9.69132 1.3141,6.7347 2.9566,14.78343 v 16.426 l -2.2996,4.59931 3.7237,4.28607 10.0701,-6.91178 7.2274,-6.5704 3.9422,-4.27077 1.6427,1.31408 5.5848,-2.95667 10.5126,-2.29963 z" />
	<path id="MA" class="territory" d="m 1828.8967,348.2219 4.4136,-1.39382 0.9293,-3.48448 2.0907,0.2323 2.0906,4.646 -2.5552,0.92918 -7.8982,0.23232 z m -19.0486,1.62609 4.646,-5.34289 h 3.2522 l 3.7168,3.01989 -4.8783,2.09069 -4.4137,2.09068 z m -70.7173,-44.6835 35.4802,-8.54153 4.5993,-1.31408 4.2707,-6.57039 7.5937,-3.38012 5.8714,8.9676 -4.9278,10.51264 -0.657,2.95667 3.9422,5.25632 2.2997,-1.64259 h 3.6137 l 4.5993,5.2563 7.8845,12.15524 7.2274,0.98556 4.5993,-1.97112 3.6137,-3.61372 -1.6426,-5.58482 -4.2708,-3.28521 -2.9567,1.64259 -1.9711,-2.62815 0.9856,-0.98556 4.2707,-0.32852 3.6138,1.6426 3.9422,4.9278 1.9711,5.91336 0.6571,4.92778 -8.5416,2.95669 -7.8844,3.94223 -7.8845,9.19857 -3.9423,2.95667 v -1.97111 l 4.9279,-2.95669 0.9855,-3.61371 -1.6426,-6.24188 -5.9133,2.95667 -1.6426,2.95669 0.9855,4.59926 -4.1991,2.03304 -5.5827,-9.19985 -6.899,-8.87005 -4.2076,-3.68323 -13.2766,3.81274 -10.3484,2.13537 -44.3503,9.69135 -0.8181,-10.04828 1.314,-21.51806 10.5127,-1.80688 z" />
	<path id="ME" class="territory" d="m 1876.1194,152.07689 3.9423,4.27076 4.5992,7.55596 v 3.94223 l -4.2707,9.52708 -3.9423,1.31408 -6.8989,6.24187 -9.8556,11.16968 c 0,0 -1.3141,0 -2.6281,0 -1.3141,0 -1.9712,-4.27076 -1.9712,-4.27076 l -3.6137,0.32852 -1.9711,2.95668 -4.9278,2.95668 -1.9711,2.95668 3.2852,2.95667 -0.9856,1.31409 -0.9855,5.58482 -3.9423,-0.32852 v -3.28518 l -0.657,-2.62818 -2.9567,0.65706 -3.6137,-6.5704 -4.2708,2.62816 2.6282,2.95667 0.657,2.29965 -1.6426,2.62815 0.6571,6.24188 0.3285,3.28519 -3.2852,5.25632 -5.9133,0.98555 -0.6571,5.91336 -10.8411,6.24188 -2.6282,0.98556 -3.2852,-2.95667 -6.2419,7.22744 1.9711,6.57039 -2.9566,2.62815 -0.3286,8.87003 -2.2826,12.72002 -5.0037,-2.34907 -0.9856,-6.2419 -7.8845,-2.29966 -0.657,-5.58486 -14.7835,-47.63548 -8.5322,-27.71812 2.8868,-0.24013 3.0763,0.83298 v -5.25632 l 1.6426,-11.16968 5.2563,-9.52707 2.9567,-8.213 -3.9423,-4.92779 v -12.15523 l 1.6426,-1.97111 1.6426,-5.58484 -0.3285,-2.95668 -0.3285,-9.85559 3.6137,-9.8556 5.9134,-18.068587 4.2707,-8.541515 h 2.6282 l 2.6281,0.328519 v 2.299638 l 2.6282,4.599278 5.5848,1.31408 1.6426,-1.642601 v -1.971117 l 8.213,-5.913358 3.6137,-3.613717 2.9567,0.328521 12.1553,4.927797 3.9422,1.971117 18.3971,60.776155 h 12.1552 l 1.6426,3.94224 0.3286,9.85559 5.9133,4.59928 h 1.6426 l 0.3285,-0.98556 -0.9855,-2.29964 z m -42.5366,61.26459 3.1209,-3.12095 2.7924,2.13539 1.1499,4.92782 -3.4495,1.80686 z m 13.6336,-11.991 3.6137,3.77798 c 0,0 2.6282,0.1642 2.6282,-0.4928 0,-0.65703 0.4927,-4.1065 0.4927,-4.1065 l 1.8069,-1.6426 -1.6426,-3.61374 -4.1065,1.47835 z" />
	<path id="NH" class="territory" d="m 1789.9239,284.35835 1.7659,-2.18762 2.2155,-6.68788 -5.1679,-1.85631 -0.9856,-6.2419 -7.8845,-2.29963 -0.657,-5.58487 -14.7835,-47.63548 -9.3508,-29.55366 -1.823,-0.0104 -1.3141,3.2852 -1.314,-0.98556 -1.9712,-1.97112 -2.9566,3.94224 -0.099,10.22594 0.6333,11.51669 3.9422,5.58486 v 8.21301 l -7.5559,10.28837 -5.2564,2.29968 v 2.29963 l 2.2997,3.61373 v 17.41158 l -1.6426,18.72567 -0.3285,9.85561 1.9711,2.62819 -0.3285,9.19855 -0.9856,3.61375 2.9567,1.80049 33.3069,-9.53026 4.5993,-1.31407 3.1178,-5.1868 z" />
	<path id="VT" class="territory" d="m 1715.8405,307.32514 -1.6425,-11.49822 -4.8584,-20.26402 -1.314,-0.65704 -5.9134,-2.62817 1.6426,-5.91336 -1.6426,-4.27076 -5.4869,-9.42918 1.9711,-7.8845 -1.6426,-10.51266 -4.9278,-13.14084 -1.6371,-10.00332 53.3391,-13.71187 0.6591,11.82529 3.9422,5.58487 v 8.21301 l -7.5559,8.21301 -5.2564,2.29965 v 2.29963 l 2.2997,3.61373 v 17.41158 l -1.6426,18.72568 -0.3286,9.85563 1.9712,2.62817 -0.3286,9.19855 -0.9855,3.61374 1.3425,3.18409 -14.1264,2.79245 z" />
	<path id="NY" class="territory" d="m 1683.8761,379.865 -2.2996,-1.97112 -5.2563,-0.32852 -4.5993,-3.94222 -3.3137,-12.45537 -7.0281,0.18391 -4.966,-5.50349 -39.3941,8.9048 -87.3864,17.74012 -15.3015,2.49547 -1.5,-13.1447 2.9021,-2.28695 2.6281,-2.29963 1.9712,-3.28521 3.6137,-2.29963 3.9422,-3.61373 0.9856,-3.28519 4.2707,-5.58484 2.2997,-1.97111 -0.3285,-1.97114 -2.6282,-6.24186 -3.6137,-0.32851 -3.9423,-12.48376 5.9134,-3.61373 8.87,-2.95667 8.213,-2.62817 6.5704,-0.98556 12.8123,-0.32852 3.9422,2.62818 3.2852,0.32851 4.2708,-2.62817 5.2563,-2.29963 10.5126,-0.98556 4.2708,-3.61372 3.6137,-6.5704 3.2852,-3.94223 h 4.2708 l 3.9422,-2.29965 0.3285,-4.59926 -2.9566,-4.27077 -0.6571,-2.95667 2.2996,-4.27076 v -2.95667 h -3.6137 l -3.6137,-1.6426 -1.6426,-2.29965 -0.3285,-5.25632 11.8267,-11.16967 1.3141,-1.64259 2.9567,-5.91336 5.9133,-9.19857 5.5849,-7.55595 4.2707,-4.92779 4.9079,-3.70993 6.2618,-2.53194 11.1697,-2.62818 6.5703,0.32852 9.1986,-2.95667 15.3737,-4.20894 1.0563,10.11948 4.9278,13.14083 1.6426,10.51267 -1.9711,7.88449 5.2563,9.19857 1.6426,4.27077 -1.6426,5.91338 5.9134,2.62815 1.3141,0.65704 6.2419,22.3394 -1.0899,10.28206 -0.9855,22.01086 1.6426,11.1697 1.6426,7.22746 2.9567,14.78343 v 16.42602 l -2.2997,4.59929 3.7378,4.04966 1.6187,3.41082 -3.9422,3.61373 0.657,2.62815 2.6282,-0.65704 2.9567,-2.62815 4.5993,-5.25632 2.2996,-1.31408 3.2852,1.31408 4.5993,0.32852 16.0974,-7.88447 5.9134,-5.58485 2.6282,-2.95667 8.5415,3.28519 -6.899,7.22744 -7.8844,5.91336 -14.4549,10.84114 -5.2563,1.97113 -11.8267,3.94223 -8.213,2.29965 -2.3873,-1.083 -0.4959,-7.49568 0.9856,-5.58486 -0.3285,-4.27074 -5.7175,-3.45264 -9.1986,-1.97113 -7.8845,-2.29964 z" />
	<path id="NJ" class="territory" d="m 1682.9537,381.70979 -4.2707,4.9278 v 6.2419 l -3.9423,6.24188 -0.3285,3.28523 2.6282,2.62815 -0.3285,4.92783 -4.5993,2.29963 1.6426,5.58484 0.3285,2.29965 5.5848,0.65704 1.9712,5.25632 7.2274,4.92782 4.9278,3.28519 v 1.64262 l -6.5704,6.2419 -3.2852,4.59926 -2.9567,5.58486 -4.5993,2.62815 -2.4639,1.47836 -0.4928,2.46391 -1.238,5.29731 2.2197,4.56055 6.5704,5.91336 9.8555,4.59929 8.213,1.31407 0.3285,2.95667 -1.6425,1.97111 0.657,5.58485 h 1.6426 l 4.2708,-4.92779 1.6425,-9.8556 5.5849,-8.213 6.2419,-13.14079 2.2996,-11.16966 -1.3141,-2.29965 -0.3285,-19.05416 -3.2852,-6.8989 -2.2996,1.6426 -5.5849,0.65704 -0.9855,-0.98556 2.2996,-1.97113 4.2708,-3.94223 0.1282,-2.22284 -0.7811,-6.97811 0.9855,-5.58486 -0.3285,-4.27076 -5.2563,-2.29966 -9.1986,-1.97111 -7.8845,-2.29965 z" />
	<path id="PA" class="territory" d="m 1670.8553,455.13097 2.2997,-1.31409 4.5992,-1.24456 2.9567,-5.58486 3.2852,-4.59928 6.5704,-6.2419 v -1.6426 l -4.9278,-3.28519 -7.2274,-4.92782 -1.9711,-5.25632 -5.5849,-0.65704 -0.3285,-2.29965 -1.6426,-5.58484 4.5993,-2.29963 0.3285,-4.92783 -2.6282,-2.62817 0.3285,-3.28521 3.9423,-6.24188 v -6.2419 l 4.7636,-4.9278 0.4359,-2.20174 -5.2563,-0.32852 -4.5993,-3.94223 -4.9278,-10.84118 -6.1058,-1.89139 -4.7354,-4.35051 -37.7799,8.21301 -87.3864,17.74012 -18.0687,2.95667 -1.0073,-14.39559 -11.1515,11.44136 -2.6282,0.98556 -8.5397,6.11454 5.9151,38.89035 5.0432,19.77161 7.2584,39.14241 6.6438,-1.29587 24.2713,-3.05326 77.0729,-15.5769 30.2308,-5.73744 16.8677,-3.29689 0.5428,-0.48473 4.2708,-3.28523 z" />
	<path id="DE" class="territory" d="m 1671.1514,463.18515 1.1975,-4.27302 0.044,-2.44857 -2.5797,-0.17964 -4.2708,3.28521 -2.9567,2.95667 2.9567,8.54155 4.5993,11.4982 4.2708,19.71123 3.2852,12.81232 10.1841,-0.32852 12.4818,-2.46283 -4.6013,-14.94658 -1.9711,0.98556 -7.2275,-4.92778 -3.6137,-9.52709 -3.9422,-7.22744 -4.5993,-1.97111 -4.2708,-7.22743 z" />
	<path id="MD" class="territory" d="m 1700.8225,513.74881 -12.4797,2.62602 -11.7984,0.32852 -3.7464,-14.42653 -4.2708,-19.71123 -4.5993,-11.4982 -2.6182,-8.93811 -15.2534,3.2969 -30.2308,5.73743 -76.1073,15.34463 2.299,10.18449 1.9711,11.49818 0.6571,-0.65703 4.2707,-4.92779 4.5993,-5.3195 4.9278,-1.25091 2.9567,-2.95669 3.6137,-5.25633 2.6282,1.3141 5.9133,-0.65706 5.2564,-4.27074 4.0783,-2.95328 3.7498,-0.98556 3.3416,2.29624 5.9133,2.95667 3.9423,3.61373 2.4639,3.12095 8.3773,3.44945 v 5.91336 l 11.1696,2.62817 2.3257,1.10139 2.8692,-4.12187 5.8566,4.00368 -2.5974,5.04367 -1.5551,8.0995 -3.6138,5.25632 v 4.27077 l 1.3141,3.61373 10.2908,2.75497 8.7608,-0.12538 6.2419,1.97113 4.2707,0.65704 1.9712,-4.27076 -2.9567,-4.27075 v -3.61373 l -4.9278,-4.27076 -4.2708,-11.16966 2.6282,-10.84117 -0.3285,-4.27074 -2.6282,-2.62817 c 0,0 2.9567,-3.28519 2.9567,-4.59927 0,-1.31409 0.9855,-4.27076 0.9855,-4.27076 l 3.9423,-2.62816 3.9422,-3.2852 0.9856,1.97113 -2.9567,3.28519 -2.6282,7.55595 0.6571,2.29963 3.6137,0.65704 0.9856,11.16968 -4.2708,1.97112 0.657,7.22743 0.9856,-0.32852 2.2996,-3.94222 3.2852,3.6137 -3.2852,2.62818 -0.657,6.89891 5.2563,6.89892 7.8845,0.98556 3.2852,-1.6426 6.5772,8.50038 2.7604,1.08985 13.5213,-5.68385 4.0797,-8.17714 z m -33.7999,18.25799 2.2997,5.09209 0.3285,3.61373 2.2996,3.77798 c 0,0 1.8069,-1.80687 1.8069,-2.46391 0,-0.65704 -1.4783,-6.2419 -1.4783,-6.2419 l -1.4784,-4.76356 z" />
	<path id="WV" class="territory" d="m 1537.4514,486.64466 2.2598,10.04807 2.2017,14.03477 7.2339,-5.58484 4.5992,-6.2419 5.1584,-1.2509 2.9567,-2.95667 3.6137,-5.25632 2.3976,1.31407 5.9133,-0.65703 5.2564,-4.27077 4.0783,-2.95325 3.7498,-0.98558 2.6498,2.06563 4.5297,2.26488 3.9423,3.61373 2.7924,2.62815 -0.2906,9.49234 -11.4982,-6.24188 -9.1986,-3.61373 -0.3285,10.84118 -0.9855,4.27075 -3.2852,5.58486 -1.3141,3.28521 -6.2419,4.92778 -0.9856,4.59931 -6.8989,0.65703 -0.6571,6.24188 -2.2996,11.1697 h -5.2563 l -2.6282,-1.64261 -3.2852,-5.58486 -3.6137,0.32852 -0.657,8.87007 -4.2708,13.46933 -10.1841,22.01087 1.6426,2.62815 -0.3285,5.58484 -4.2708,3.94225 -2.9567,-0.65704 -6.5704,4.9278 -5.2563,-1.97111 -3.6137,9.52707 c 0,0 -7.556,1.64261 -8.8701,1.97113 -1.3141,0.32852 -4.9278,-2.62817 -4.9278,-2.62817 l -4.9278,4.59928 -5.2563,1.3141 -5.9134,-1.64262 -2.6282,-2.62815 -4.4549,-6.14395 -6.3862,-4.04017 -5.2564,-5.58486 -5.9133,-7.55596 -1.3141,-4.59928 -5.2563,-2.95669 -1.6426,-3.28519 -0.4928,-10.67693 4.435,-0.16419 3.9423,-1.6426 0.3285,-5.58484 3.2852,-2.95669 0.3285,-10.18412 1.9711,-7.8845 2.6282,-1.31407 2.6281,2.29963 0.9856,3.61373 3.6137,-1.97114 0.9856,-3.28519 -2.2996,-3.61372 v -4.92781 l 1.9711,-2.62817 4.5993,-6.89891 2.6281,-2.95667 4.2708,0.98555 4.5993,-3.28523 6.2418,-6.89891 4.5993,-7.8845 0.6571,-11.49818 0.9855,-10.18414 v -9.52709 l -2.2996,-6.24188 1.9711,-2.95671 2.6083,-2.62815 7.0947,40.29186 9.411,-1.52645 z" />
	<path id="KY" class="territory" d="m 1466.778,600.14189 -4.7239,5.45214 -8.5415,7.22746 -8.7374,11.99415 -3.6137,3.61373 v 4.27074 l -7.8845,4.27077 -11.4982,6.89893 -7.1523,0.78165 -105.4038,9.95527 -32.026,3.61371 -9.391,1.0419 -7.8611,-0.0563 -0.4612,8.57628 -16.6219,0.29377 -14.1263,1.31408 -21.1967,0.41781 3.8871,-0.45039 4.4302,-3.5807 4.1814,-2.32296 0.4646,-6.5044 1.8584,-3.71678 -3.2653,-5.15944 1.6294,-3.87495 4.5993,-3.6137 4.2708,-1.3141 5.5848,2.62817 7.2275,2.62815 2.2996,-0.65703 0.3286,-4.59929 -2.6282,-4.9278 0.657,-4.59929 3.9423,-2.95667 5.2563,-1.31409 3.2852,-1.31408 -1.6426,-3.61373 -1.3141,-3.94224 2.2997,-1.6426 2.1353,-6.73469 6.0777,-3.44945 11.8267,-1.97112 7.2274,-0.98555 2.9567,3.94224 3.6137,1.6426 3.6138,-6.5704 5.9133,-2.95669 3.9423,3.28521 1.6426,2.29963 4.2708,-0.98555 -0.3286,-6.89892 5.9134,-3.28521 2.2996,-1.64261 2.2997,3.2852 h 9.5271 l 1.6426,-4.27076 -0.6571,-4.59927 5.9134,-7.22747 9.5271,-7.88447 0.9855,-9.19857 5.5849,-0.65704 7.8845,-3.61373 5.5848,-3.94225 -0.657,-3.94224 -2.9567,-2.95667 1.1498,-4.43501 8.3773,-0.49279 4.9278,-1.6426 5.9134,3.28519 3.2852,8.87005 11.8267,0.65704 3.6137,3.61373 4.2708,0.32851 4.9278,-2.95667 6.2419,0.98556 2.6281,2.95667 5.5849,-5.25632 3.6137,-2.62817 h 3.2852 l 1.3141,5.58486 3.6137,1.97111 4.9215,4.50138 0.3285,11.16968 1.6426,3.28521 5.2563,2.95667 1.3141,4.5993 5.9134,7.55596 5.2563,5.58486 z" />
	<path id="OH" class="territory" d="m 1486.3942,391.21526 -12.383,8.23705 -7.8845,4.59928 -6.8989,7.55596 -8.213,7.88447 -6.5704,1.64259 -5.9134,0.98556 -11.1697,5.25632 -4.2707,0.32852 -6.8989,-6.24188 -10.5127,1.3141 -5.2563,-2.95669 -4.8387,-2.7451 -9.9425,1.42944 -20.6967,3.28521 -15.769,2.46391 2.6282,29.73106 3.6137,27.92424 5.2563,47.63544 1.1498,9.81771 8.3773,-0.26219 4.9278,-1.64261 6.8358,3.05462 4.2075,8.87002 10.4432,-0.0348 3.8443,4.30554 3.579,-0.1327 5.1584,-2.72606 5.0889,0.75495 4.0117,2.95669 3.5095,-4.33395 4.7667,-2.62815 4.2076,-1.38359 1.3141,5.58486 3.6137,1.97111 7.0632,4.76352 4.435,-0.16419 2.3281,-2.33441 -0.1327,-2.81765 3.2852,-2.95671 0.3285,-10.1841 c 0,0 1.9711,-7.8845 1.9711,-7.8845 l 3.0894,-2.92828 3.0893,1.83846 1.6774,2.4607 2.4607,-0.35691 -0.8592,-4.89939 -1.1466,-1.30774 v -4.92782 l 1.9711,-2.62815 4.5992,-6.89892 2.6282,-2.95669 4.2708,0.98556 4.5993,-3.28521 6.2418,-6.89892 4.5994,-7.88449 0.4264,-11.03698 0.9855,-10.18415 v -9.52709 l -2.2996,-6.24188 1.9711,-2.95669 1.8706,-1.93992 -2.855,-20.00219 z" />
	<path id="MI" class="territory" d="m 1181.9431,161.68552 3.7168,-4.18137 4.4136,-1.6261 10.9181,-7.89818 4.646,-1.1615 0.9292,0.92921 -10.4535,10.45347 -6.7367,3.94907 -4.1814,1.8584 z m 175.12,65.28959 1.3141,5.09206 6.5704,0.32852 2.6282,-2.46391 c 0,0 -0.1642,-2.95667 -0.8213,-3.28521 -0.6571,-0.32852 -3.2852,-3.77799 -3.2852,-3.77799 l -4.435,0.49278 -3.2853,0.32852 -0.657,2.29965 z m 61.0997,128.12703 -6.5704,-16.75452 -4.5993,-18.3971 -4.9278,-6.5704 -5.2563,-3.61372 -3.2852,2.29965 -7.8845,3.61371 -3.9422,10.18412 -5.5848,7.55595 -2.2997,1.31408 -2.9567,-1.31408 c 0,0 -5.2563,-2.95669 -4.9278,-4.27076 0.3286,-1.31408 0.9856,-10.18411 0.9856,-10.18411 l 6.8989,-2.62817 1.6426,-6.89891 1.3141,-5.25631 4.9278,-3.2852 -0.657,-20.36823 -3.2853,-4.59927 -2.6281,-1.64261 -1.6426,-4.27075 1.6426,-1.64259 3.2852,0.65703 0.3285,-3.2852 -4.9278,-4.59929 -2.6281,-5.2563 h -5.2564 l -9.1985,-2.95669 -11.1697,-6.89892 h -5.5848 l -1.3141,1.3141 -1.9711,-0.98558 -6.2419,-4.59926 -5.9134,3.61371 -5.9133,4.59928 0.657,7.22743 1.9711,0.65704 4.2708,0.98556 0.9856,1.64259 -5.2564,1.64262 -5.2563,0.65704 -2.9567,3.6137 -0.657,4.27077 0.657,3.28519 0.6571,11.16968 -7.2274,4.27077 -1.3141,-0.32854 v -8.54151 l 2.6281,-4.92779 1.3141,-4.9278 -1.6426,-1.6426 -3.9422,1.6426 -1.9712,8.54151 -5.5848,2.29963 -3.6137,3.94225 -0.3285,1.97111 1.3141,1.6426 -1.3141,5.25632 -4.5993,0.98555 v 2.29966 l 1.6426,4.92778 -2.2996,12.48376 -3.2852,8.21299 1.314,9.52709 0.9856,2.29963 -1.6426,4.9278 -0.657,1.6426 -0.6571,5.58484 7.2275,12.15522 5.9133,13.14079 2.9567,9.85561 -1.6426,9.52706 -1.9711,12.15524 -4.9278,10.51263 -0.6571,5.58484 -6.6225,6.26951 8.959,-0.32931 43.5258,-4.59928 14.7897,-2.00586 0.1959,3.38628 13.9242,-2.46391 20.9274,-3.0546 7.8323,-0.93664 0.2806,-1.19399 0.3285,-2.95667 4.2707,-7.55596 4.0655,-3.53159 -0.4517,-10.26624 3.2453,-3.24534 2.2163,-0.69691 0.4517,-7.22743 3.121,-6.15972 2.1353,1.23193 0.3285,1.31408 1.6427,0.32852 3.9422,-1.97112 z m -264.9285,-134.17069 1.4556,-1.17947 5.5848,-1.64261 7.2275,-4.59927 v -1.97113 l 1.3141,-1.31407 12.1552,-1.97112 4.9278,-3.94224 8.87,-4.27075 0.3285,-2.62816 3.9423,-5.91336 3.6137,-1.6426 2.6282,-3.61372 4.5992,-4.59927 8.8701,-4.9278 9.527,-0.98556 2.2997,2.29964 -0.6571,1.97112 -7.5559,1.97112 -2.9567,6.24187 -4.5993,1.6426 -0.9855,4.9278 -4.9278,6.5704 -0.6571,5.25632 1.6426,0.98555 1.9712,-2.29963 7.2274,-5.91336 2.6281,2.62815 h 4.5993 l 6.5704,1.97112 2.9567,2.29965 2.9567,6.24188 5.5848,5.58482 7.8845,-0.32852 2.9567,-1.97111 3.2852,2.62815 3.2852,0.98557 2.6281,-1.64261 h 2.2996 l 3.2853,-1.97111 8.2129,-7.22744 6.899,-2.29963 13.4693,-0.65704 9.1985,-3.94225 5.2563,-2.62815 2.9567,0.32852 v 11.49818 l 0.9856,0.65704 5.9133,1.64262 3.9423,-0.98558 12.4837,-3.28519 2.2997,-2.29963 2.9567,0.98555 v 14.12636 l 6.5704,6.24187 2.6281,1.31408 2.6282,1.97111 -2.6282,0.65704 -1.6426,-0.65704 -7.5559,-0.98555 -4.2708,1.31407 -4.5993,-0.32852 -6.5704,2.95669 h -3.6137 l -11.8267,-2.62817 -10.5126,0.32852 -3.9423,5.25632 -14.1263,1.31408 -4.9278,1.64259 -2.2997,6.24188 -2.6281,2.29965 -0.9856,-0.32851 -2.9567,-3.28521 -9.1985,4.9278 h -1.3141 l -2.2996,-3.28521 -1.6426,0.32852 -3.9423,8.87005 -1.9711,8.21299 -6.4645,14.22674 -2.3914,-2.1018 -2.7876,-2.09581 -3.944,-20.90689 -7.2029,-2.78416 -4.1712,-4.64598 -24.6305,-5.57519 -5.8024,-2.09239 -16.7255,-4.41536 -16.0337,-2.323 z" />
	<path id="WY" class="territory" d="m 719.89583,287.10402 -21.43756,-1.64001 -65.2079,-6.69682 -32.98644,-4.18137 -57.61011,-8.36276 -40.41997,-6.03977 -2.88382,22.71134 -7.80192,49.30128 -10.68577,61.79148 -3.11123,21.37055 -3.39312,24.15999 13.25754,1.8866 52.59098,5.08024 41.79973,4.68819 74.75038,8.3627 48.40814,5.81201 9.15348,-89.80585 2.92604,-51.57033 z" />
	<path id="MT" class="territory" d="m 724.81154,243.40849 1.31647,-22.65977 4.58961,-50.37137 c 0.92921,-10.22116 2.20227,-17.21667 2.7876,-31.31571 l 1.90974,-29.57119 -62.33511,-5.70596 -59.46209,-7.227435 -59.46208,-8.212996 -65.70397,-10.841153 -37.45126,-6.898917 -66.49966,-14.088423 -9.10209,43.381586 6.96897,15.331708 -2.7876,9.29195 3.71678,9.29195 6.5044,2.78758 9.39024,21.88524 5.47687,6.4552 0.92919,2.323 6.96896,2.323 0.9292,4.18136 -14.40252,35.77403 v 5.11058 l 5.11058,6.50435 h 1.85837 l 9.75654,-6.03976 1.39381,-2.323 3.25219,1.39379 -0.46461,10.68575 5.57519,25.55288 6.03976,5.11055 1.85836,1.3938 3.7168,4.64596 -0.9292,6.96899 1.3938,6.96894 2.323,1.85841 4.64596,-4.64598 h 5.57517 l 6.50437,3.25218 5.11058,-1.85839 h 8.36276 l 7.43354,3.25219 5.57518,-0.9292 0.92919,-6.03978 6.03976,-1.39378 2.78759,2.78759 0.92921,6.50436 3.61606,2.77383 3.11612,-23.50206 42.05055,6.03976 57.28397,8.03666 33.6387,3.85525 63.90344,7.02294 22.33371,3.09715 2.13778,-31.35065 z" />
	<path id="ID" class="territory" d="m 329.4526,362.66746 c -45.94891,-8.82623 -28.74951,-5.78555 -42.96121,-8.84139 l 8.99645,-35.56781 8.82736,-36.00631 2.78759,-8.59505 5.11056,-12.07952 -2.55528,-4.64599 -5.1106,0.2323 -1.62607,-2.09069 0.9292,-2.32298 0.69687,-6.27207 9.05967,-11.15036 3.71678,-0.92919 2.32298,-2.32298 1.1615,-6.50437 1.85837,-1.39378 7.89817,-11.84724 7.89817,-8.82735 0.46459,-7.66585 -6.96896,-5.34288 -2.67144,-8.9435 0.81305,-19.62923 7.43356,-33.45103 9.05965,-42.278361 7.66585,-27.411231 1.54836,-7.728679 26.41023,5.137524 -8.44988,43.707709 5.99062,15.657828 -2.13535,9.29195 4.0429,9.29195 6.50437,3.43981 9.06412,19.92855 5.47688,7.75967 1.25532,2.32299 6.96897,2.323 0.92918,5.15969 -14.0764,34.14346 0.65224,6.74114 5.43666,5.85213 3.81509,0.97834 9.75654,-7.3442 0.74158,-1.01856 0.31713,1.71994 0.51375,8.40292 5.24907,26.20512 7.0181,5.43665 0.88005,1.71992 4.369,4.97208 -1.5814,5.66453 1.39377,7.62116 3.95359,1.85841 4.31984,-3.3415 5.24905,-0.97836 6.83049,3.25219 5.11058,-1.20617 7.71054,-0.32612 8.08576,3.25218 5.57518,-0.60306 1.90755,-4.73534 5.0614,-3.35046 1.48315,3.43982 1.25529,4.54766 4.69067,5.15974 -7.66586,48.73357 -10.45355,58.95042 -8.45215,-0.64764 -16.63168,-3.1137 -19.92853,-3.71678 -24.71748,-4.83361 -25.45906,-5.08824 -17.23925,-3.73911 -18.81619,-3.39066 z" />
	<path id="WA" class="territory" d="m 190.15572,7.8567044 8.87004,2.9566786 19.71119,5.584837 17.41154,3.942237 40.73646,11.498195 46.64982,11.498192 30.80879,6.898517 -2.04085,7.893012 -8.31808,28.063456 -9.05963,42.278361 -6.45523,32.7988 -0.71441,19.05916 -26.78618,-7.9133 -31.64175,-6.87516 -27.77309,1.21063 -3.21197,-3.11367 -10.82424,3.85526 -8.08131,-0.50928 -5.53052,-3.57829 -3.2075,1.06768 -8.54589,-0.46461 -3.8106,-2.78758 -9.70741,-3.52915 -2.93054,-0.41992 -10.13183,-2.69377 -3.62296,3.06453 -11.56579,-0.69688 -9.79672,-7.71051 0.41544,-1.62609 0.13847,-16.12244 -4.31986,-7.89815 -8.36276,-1.48762 -0.74155,-4.78444 -5.10968,-1.27426 -5.85574,-1.08697 -3.61372,1.97112 -4.59928,-5.91335 0.65704,-5.91336 5.58484,-0.65704 3.2852,-8.212994 -5.25632,-2.29964 0.32852,-7.555957 8.87003,-1.314077 -5.58483,-5.584837 -2.95668,-14.454873 1.31408,-5.913355 v -16.097471 l -3.61372,-6.570398 4.59928,-19.054149 4.27076,0.985559 4.92779,5.913358 5.58484,5.256316 6.57039,3.942238 9.19856,4.270757 6.24188,1.31408 5.91336,2.956678 6.89892,1.971119 4.59928,-0.328519 v -4.927799 l 2.62816,-2.299638 4.27075,-2.628159 0.65704,2.29964 0.65704,3.613718 -4.59928,0.985558 -0.65704,4.270758 3.61372,2.95668 2.29964,4.927797 1.31408,3.942236 2.95668,-0.328518 0.32852,-2.628159 -1.97112,-2.62816 -0.98556,-6.570395 1.6426,-3.613718 -1.31408,-2.956678 v -4.599278 l 3.61372,-7.227435 -2.29964,-5.256318 -4.9278,-9.855595 0.65704,-1.6425987 z m -19.2175,12.1502086 4.10651,-0.328519 0.98557,2.792428 3.12094,-3.285219 h 4.76355 l 1.6426,3.120948 -3.12095,3.449468 1.3141,1.642621 -1.47835,4.106508 -2.79243,0.821289 c 0,0 -1.80687,0.16428 -1.80687,-0.492768 0,-0.65704 2.9567,-5.256339 2.9567,-5.256339 l -3.44946,-1.14983 -0.65704,2.956698 -1.47836,1.31408 -3.12095,-4.599299 z" />
	<path id="TX" class="territory" d="m 725.5892,672.39741 46.1113,2.2068 63.1853,2.323 -4.7443,47.66592 -0.60306,36.89085 0.13839,4.23053 8.82735,7.75965 3.52915,1.67076 3.6766,0.51375 1.3938,-2.5508 1.80927,1.76009 3.52913,0.97834 3.26115,-1.48311 2.31402,0.83089 -0.60308,6.91981 8.68888,2.09518 5.43667,1.67078 8.03667,1.06765 4.45831,3.71678 6.60269,-3.20303 5.66452,0.74156 4.13221,5.66452 2.18449,0.65224 -0.3261,3.99374 6.27655,2.37212 5.62431,-3.66764 3.06453,0.74158 4.78448,0.32612 0.88006,3.80611 9.43042,4.04288 5.3965,-0.41544 4.04292,-8.36276 h 0.6924 l 2.323,3.85527 9.01499,2.046 6.78131,2.46149 6.692,1.53229 4.36902,-1.53229 1.7199,-5.11055 h 7.52289 l 3.85527,1.53225 6.22739,-3.20303 h 1.34466 l 0.74156,2.27384 h 8.68888 l 4.8828,-2.5508 3.3906,0.60306 2.877,3.80613 5.8521,3.39066 7.1566,2.18451 5.5751,2.88142 4.9721,3.29681 6.692,-1.80921 3.9446,1.99686 1.0387,20.60534 0.6812,19.71636 1.3938,19.37462 1.0677,8.22425 5.4367,9.34111 2.1845,8.26447 7.849,12.78092 1.1168,5.85215 1.0677,2.046 -1.3938,15.23345 -5.3875,8.91666 1.9477,5.81194 -0.7416,5.11057 -1.7199,14.86714 -2.7876,5.52603 1.2279,8.91352 -11.5119,3.22134 -20.0397,9.19856 -1.9711,3.94218 -5.2563,3.9423 -4.2708,2.9566 -2.6282,1.6426 -11.4981,10.8412 -5.58487,4.2708 -10.84117,6.5703 -11.49818,4.928 -12.81227,6.8989 -3.61371,2.9567 -11.82672,7.2274 -6.89892,1.3141 -7.88447,11.1696 -8.21299,0.6571 -1.97114,3.9422 4.59929,3.9423 -2.95669,11.1696 -2.62815,9.1986 -2.29963,7.8845 -1.6426,9.1985 1.6426,4.9278 3.6137,14.1264 1.97114,12.4837 3.6137,5.5848 -1.97111,2.9567 -6.24188,3.9423 -11.4982,-7.8845 -11.16966,-2.2996 -2.62817,0.9855 -6.5704,-1.3141 -8.54151,-6.2418 -10.51262,-2.2997 -15.44045,-6.8989 -4.27075,-7.8845 -2.62817,-13.1408 -6.57038,-3.9422 -1.31409,-4.5993 1.31409,-1.3141 0.65704,-6.8989 -2.62817,-1.3141 -1.31407,-1.9711 2.62815,-8.87 -3.28519,-4.5993 -6.5704,-2.6282 -6.89892,-8.87 -7.22743,-13.4693 -8.54151,-5.2563 0.32852,-3.9422 -10.84117,-24.9677 -1.64259,-8.5415 -3.61371,-3.9422 -0.32852,-2.9567 -12.15524,-10.84111 -5.25632,-6.24188 v -2.29965 l -5.25632,-4.27075 -13.79783,-2.29965 -15.11191,-1.31407 -6.24188,-4.59927 -9.19855,3.61371 -7.22743,2.95669 -4.59929,6.57038 -1.97111,7.55597 -8.87003,12.48373 -4.9278,4.9278 -5.25633,-1.9711 -3.6137,-2.2997 -3.94225,-1.314 -7.88447,-4.59929 v -1.3141 l -3.61371,-3.94223 -10.51264,-4.27076 -15.11191,-15.76895 -4.59929,-9.52707 v -16.426 l -6.5704,-13.14079 -0.98555,-5.58483 -3.28519,-1.97113 -2.29965,-4.27074 -10.18411,-4.27077 -2.62815,-3.28519 -14.45489,-16.09748 -2.62815,-6.5704 -9.52709,-4.59929 -2.95669,-8.87011 -5.25636,-5.91332 -3.94221,-0.98551 -1.31934,-9.50571 16.26108,1.39384 59.00372,5.57512 59.00391,3.25219 4.64598,-48.31816 7.89809,-112.89665 3.25225,-38.09754 2.78759,0.0581 m 201.13631,475.47997 -1.14981,-14.4549 -5.58486,-14.6192 -1.14984,-14.2906 3.12095,-16.7546 6.7347,-13.9621 7.06317,-11.0055 6.40618,-7.2275 1.31408,0.4928 -9.69137,13.4694 -8.87005,13.3051 -4.10653,13.4693 -0.65703,10.5127 1.80685,12.4838 5.25634,14.6192 0.98556,10.5127 0.32852,2.9567 z" />
	<path id="CA" class="territory" d="m 277.88014,780.87344 7.75285,-0.99296 3.01987,-4.08756 1.48762,-3.94461 -6.4552,-0.18309 -2.23368,-3.58276 1.58146,-3.48448 -0.0939,-12.49949 4.50751,-2.69826 5.48134,-5.24903 0.83538,-9.98885 3.34599,-7.10746 3.94908,-4.27517 6.64286,-3.48449 2.59993,-1.48313 1.53678,-3.0154 -1.76459,-1.81372 -1.95219,-3.06903 -1.90306,-10.8689 -5.90129,-10.64108 0.19733,-5.6621 -4.47244,-6.60057 -30.48028,-47.2058 -39.49078,-58.35163 -45.57522,-67.12986 -25.81341,-39.71837 3.65121,-14.64849 13.84412,-52.73181 16.49321,-63.88217 -25.12846,-6.78135 -27.41125,-6.96897 -25.55286,-8.36276 -15.331717,-4.18137 -23.229873,-6.03976 -14.328378,-4.90096 -3.211054,9.60065 -0.328521,15.11191 -10.512634,23.98194 -6.241874,5.25632 -0.65704,2.29963 -3.61372,1.64262 -2.956678,8.54151 -1.642598,6.5704 5.584837,8.54151 3.285199,8.54151 2.299638,7.22743 -0.65704,13.1408 -3.613718,6.24188 -1.314079,11.82672 -1.971119,7.55595 3.613717,7.88447 5.584837,9.19855 4.599278,9.85561 2.628157,8.21299 -0.657037,6.5704 -0.65704,0.98556 v 4.27074 l 11.498193,12.81228 -0.985559,4.9278 -1.31408,4.59928 -1.314079,3.94223 0.328519,16.75452 4.270757,7.55596 3.942239,5.2563 5.584837,0.98558 1.971119,5.58482 -2.299638,7.22743 -4.27076,3.28521 h -2.299638 l -1.642598,7.88447 0.985559,5.91336 6.570397,8.87003 3.285197,10.84117 2.956678,9.52706 2.628159,6.24188 6.898916,11.82672 2.956678,5.2563 0.985561,5.91336 3.285197,1.97112 v 4.9278 l -1.642599,3.94225 -3.613718,14.45487 -0.98556,3.94222 4.927799,5.58485 8.541515,0.98555 9.198556,3.61373 7.88447,4.27075 h 5.91336 l 5.91336,6.24187 5.25631,9.85561 2.29964,4.59926 7.88448,4.27077 9.85559,1.64259 2.95668,4.27077 1.31408,6.5704 -2.95668,1.31407 0.65704,1.97112 6.5704,1.64259 5.58484,0.32854 5.91336,9.52707 7.88448,8.54151 1.6426,4.59928 5.25631,8.54151 0.65704,6.5704 v 19.05416 l 0.98556,3.6137 20.36824,2.95669 40.0794,5.58482 z m -178.723761,-101.03221 2.628171,3.12095 -0.32852,2.62817 -6.570422,-0.1642 -1.149824,-2.46391 -1.314084,-2.95669 z m 3.942251,0 2.46391,-1.31408 7.22746,4.27077 6.2419,2.46389 -1.80687,1.31412 -9.19858,-0.4928 -3.28521,-3.28521 z m 42.05069,40.24382 3.61371,4.76355 1.64263,1.97113 3.12094,1.14982 1.14981,-2.95669 -1.97112,-3.61373 -5.42058,-4.10651 -2.13539,0.32852 z m -2.9567,17.57586 3.61374,6.40616 2.4639,3.94227 -2.95669,0.49276 -2.62816,-2.46389 c 0,0 -1.47835,-2.95669 -1.47835,-3.77801 0,-0.82128 0,-4.43503 0,-4.43503 z" />
	<path id="AZ" class="territory" d="m 279.92382,782.3911 -5.3385,4.38607 -0.65704,2.95669 0.98555,1.97111 38.43681,21.68231 24.639,15.44042 29.8953,17.41156 34.16606,20.36823 24.96752,4.92781 51.06397,5.4968 5.14303,-25.41611 7.62602,-55.36199 14.15371,-107.46294 8.65143,-62.92721 -49.98443,-7.47585 -55.28711,-9.29195 -67.93336,-12.83853 -5.93776,36.7655 -0.92919,0.92921 -3.48448,5.34287 -5.11058,-0.23232 -2.55527,-5.57517 -5.57517,-0.69688 -1.85841,-2.32299 h -1.85837 l -1.85841,1.16151 -3.94907,2.09068 -0.23228,14.17021 -0.46463,3.48448 -1.16146,25.55286 -3.01989,4.41366 -1.1615,6.73667 5.57516,9.98886 2.55528,11.84724 1.62611,2.09069 2.09069,1.1615 -0.23232,4.64596 -3.25216,2.78758 -6.96897,3.48448 -3.94907,3.94909 -3.01989,7.43354 -1.1615,9.98886 -5.80747,5.57516 -4.18137,1.3938 -0.23229,11.84725 -0.92921,3.48448 0.92921,1.62609 7.43355,1.16146 -1.1615,5.57519 -3.01989,4.41367 z" />
	<path id="NV" class="territory" d="m 285.83917,355.78277 42.63509,9.16752 19.74539,3.94909 18.81619,3.71676 13.44204,3.31919 -1.13469,11.91871 -7.20127,35.2156 -8.31807,40.60313 -3.94907,19.74988 -4.41369,26.99132 -6.41057,33.35719 -7.15657,31.87407 -4.00009,20.68811 -5.01043,34.08078 -0.92918,2.23364 -2.18002,5.01675 -3.80611,-0.23229 -2.22918,-5.57517 -5.57517,-1.02303 -2.83673,-1.99686 -4.14119,0.65224 -1.85839,1.48762 -2.64462,2.74291 -0.88451,14.17021 -1.11686,3.48448 -0.83536,24.57451 -2.68672,3.48345 -3.81318,-4.59579 -29.50191,-46.22745 -39.49079,-59.00387 -46.22744,-68.76042 -25.16118,-37.76167 3.32508,-13.34405 14.17024,-52.73181 16.02862,-63.70382 68.29582,16.54714 27.87586,6.03976" />
	<path id="UT" class="territory" d="m 514.0766,623.48961 -50.07823,-7.05829 -53.98267,-9.94417 -68.74132,-12.2335 3.22849,-18.60842 6.50435,-30.89571 6.73667,-33.68332 4.41369,-27.64355 3.94908,-18.1193 7.66585,-41.58149 7.20126,-35.54169 2.26492,-11.32458 25.84322,4.58791 24.39137,4.18137 20.90688,3.7168 16.9578,2.78759 7.47381,0.97373 -3.01735,21.60271 -4.69758,26.76894 15.86647,1.88659 33.34066,3.66763 16.686,1.73879 -4.32947,44.64361 -6.50436,45.85669 -7.62602,56.54723 -3.38586,22.57282 z" />
	<path id="CO" class="territory" d="m 769.41772,516.77951 2.92606,-43.24776 -65.22231,-6.22741 -49.71263,-5.4859 -75.72874,-8.36268 -42.04611,-5.11051 -5.34293,45.06601 -6.50435,45.53057 -7.626,56.87335 -3.05975,22.57282 -0.50925,5.61539 68.94358,7.71052 76.69513,8.67035 64.94905,6.43355 33.75051,1.71989" />
	<path id="NM" class="territory" d="m 574.5407,870.88064 -1.32174,-12.44312 17.56554,1.0677 59.98208,6.22735 57.69943,2.92608 3.99374,-45.38313 7.57199,-113.54887 2.2739,-39.402 4.09204,0.7103 -0.0291,-22.50617 -65.44268,-4.8834 -75.06455,-8.99645 -70.03808,-8.36276 -8.5353,62.50489 -14.1537,108.11516 -7.626,54.70977 -4.16469,27.0467 31.41854,4.04227 2.62815,-20.36823 33.83755,5.25632 z" />
	<path id="OR" class="territory" d="m 285.12375,353.98311 8.73351,-36.37707 9.47957,-36.33243 2.13538,-8.59506 4.78445,-11.42729 -1.25081,-2.36316 -5.1106,-0.0939 -2.60441,-3.39513 0.92918,-2.97522 1.02301,-6.59818 9.05967,-11.15035 3.71678,-2.23365 2.32298,-2.32298 3.01987,-7.24593 8.22427,-11.52112 7.24593,-7.84902 0.46459,-7.01362 -6.64284,-5.01676 -2.45666,-9.16512 -26.90231,-7.60953 -30.66344,-7.20126 -31.36032,0.23229 -0.92918,-2.78757 -11.15036,4.18138 -9.05965,-1.1615 -4.87828,-3.25219 -2.55528,1.39381 -9.52424,-0.46462 -3.48448,-2.78757 -10.68575,-4.18138 -1.6261,0.23231 -8.82735,-3.01991 -3.94908,3.71679 -12.54413,-0.69688 -12.07953,-8.36276 1.39379,-1.6261 0.46459,-15.79631 -4.64597,-7.89814 -8.36276,-1.1615 -1.39379,-5.11057 -4.78356,-0.94814 -11.78353,4.18378 -4.59928,13.14078 -6.57039,20.36823 -6.5704,13.14079 -10.184113,28.58123 -13.140793,27.59565 -16.42599,25.62456 -3.942239,5.91336 -1.642598,17.41154 -2.628159,12.15524 5.503477,7.1683 13.67615,4.57483 23.555987,6.69198 15.983948,5.15974 25.22674,7.38442 27.08514,7.29508 26.75903,7.24589" />
	<path id="ND" class="territory" d="m 957.76738,254.3712 -0.74156,-15.23341 -4.04287,-14.86712 -3.7168,-27.73738 -0.92919,-19.97771 -4.0429,-6.31675 -3.25218,-10.87336 v -20.9069 l 1.39377,-7.89815 -4.29873,-11.17487 -57.76107,-1.14619 -37.77977,-1.31408 -53.87726,-2.62816 -50.69494,-3.82832 -2.56198,28.91896 -2.78759,30.66347 -4.58959,50.69749 -0.988,22.39484 115.4594,7.64935 z" />
	<path id="SD" class="territory" d="m 960.79891,407.8245 -1.93807,-2.1965 -3.09032,-7.37001 3.71678,-7.52289 2.13535,-11.28883 -5.24905,-4.18139 -0.60308,-5.57515 1.20615,-6.08894 4.36902,-1.63058 0.60308,-11.65513 -0.13839,-61.13925 -1.25532,-6.03976 -8.36277,-7.29507 -1.99686,-4.0429 v -3.90443 l 3.85525,-2.59994 3.11372,-3.76594 0.37079,-5.52603 -116.60955,-3.25216 -114.15494,-7.89817 -1.55806,10.7285 -3.27789,32.24679 -2.73368,36.47089 -3.25217,49.98446 32.57099,2.09068 39.90622,2.32298 36.56474,2.64911 48.31816,2.64908 21.83608,-1.58141 5.81196,4.64598 8.77819,6.03979 1.99688,1.53224 7.19677,-1.80925 8.2243,-0.60306 5.57516,-0.1386 6.32571,2.4615 9.24279,2.92606 6.36586,3.57829 1.25532,3.90441 1.85839,3.85527 1.434,-0.97836 z" />
	<path id="NE" class="territory" d="m 984.06181,496.85096 2.7876,5.43669 0.18757,4.31987 4.78445,7.57205 5.52603,6.40605 h -10.26135 l -88.36348,-1.90754 -82.8854,-1.80924 -43.06462,-1.95219 2.18004,-43.34159 -67.83124,-5.57516 8.82735,-89.43505 31.59262,2.09071 40.88459,2.32296 36.23862,2.323 48.31816,2.32298 21.83608,-0.92918 4.18137,4.64596 9.75656,6.03978 2.32298,1.85839 8.82736,-2.78759 7.89816,-0.92919 5.57517,-0.46461 3.71678,2.78759 10.22115,3.25219 6.03976,3.25219 0.92921,3.25218 1.85839,4.18137 h 3.71678 l 1.62162,0.0939 1.99684,10.59192 5.57519,16.31007 2.51063,9.43041 4.31984,7.7597 1.06768,10.03351 2.92608,8.68886 1.11682,13.14726" />
	<path id="IA" class="territory" d="m 1151.4082,404.66963 0.3468,3.94737 4.6459,2.31618 2.3196,2.55357 0.6986,2.56379 7.8982,6.50779 1.3938,4.41537 -1.6244,5.81598 -3.025,7.20295 -1.6244,5.57175 -4.4154,3.2556 -3.4861,1.16321 -11.147,3.01816 -1.3938,4.6392 -1.6244,4.64257 1.1632,2.78759 3.4862,3.4828 v 7.44032 l -4.4085,3.25219 -0.9326,3.02159 v 5.11397 l -3.025,0.92919 -3.4828,2.7842 -0.9258,3.01818 0.9258,3.48959 -2.7927,2.44763 -4.6613,-5.46921 -3.0147,-5.33777 -16.9493,1.62436 -20.6695,1.15982 -50.8786,1.39721 -26.4889,0.46459 -19.04844,0.46459 -2.67388,0.2464 -3.36251,-9.08735 -0.46459,-13.47335 -3.25219,-8.36277 -1.39378,-10.68572 -4.64598,-7.43358 -1.85837,-9.75654 -5.57519,-15.33172 -2.32298,-10.91806 -2.78759,-4.41367 -3.25219,-5.57515 3.71678,-8.82735 2.78759,-11.61495 -5.57516,-4.18139 -0.92921,-5.57517 1.85841,-5.11058 h 3.48448 23.46218 l 100.81772,-1.39379 40.3927,-1.39378 3.761,5.58196 3.7236,5.32757 0.9258,1.6346 -3.7202,5.58537 0.9258,8.57976 5.1106,7.89817 6.033,3.70656 4.8867,0.468 z" />
	<path id="MS" class="territory" d="m 1269.203,943.8851 -0.5167,2.5527 h -10.5127 l -2.9566,-1.64259 -4.2708,-0.65704 -13.7978,3.94223 -3.6137,-1.6426 -5.2564,8.54151 -2.2405,1.58106 -2.2838,-5.05597 -2.323,-7.89817 -6.9689,-6.50435 2.3229,-15.33173 -1.3938,-1.85839 -3.7167,0.46459 -16.7256,1.3938 -49.2473,1.3938 -0.9292,-3.25219 1.3938,-16.26093 6.969,-12.54413 10.6857,-18.5839 -1.8584,-4.18137 h 2.323 l 1.3938,-6.50437 -4.646,-3.71678 0.4646,-3.71678 -4.1814,-9.29194 -0.5807,-10.85998 2.7876,-5.40095 -0.8131,-8.82736 -2.7876,-6.03978 2.7876,-2.78757 -2.7876,-4.18137 0.9292,-3.71678 1.8584,-12.54416 6.0398,-5.57514 -1.3938,-4.18139 7.4336,-10.68577 5.5751,-1.85837 v -5.11057 l -1.3938,-2.7876 5.5752,-10.68572 5.5752,-2.323 0.2183,-6.93389 17.6299,-0.15729 48.9495,-3.94223 9.3085,-0.46461 0.016,12.94835 0.3285,33.8376 -1.6426,63.07589 -0.3285,28.58128 5.5848,38.10835 z" />
	<path id="IN" class="territory" d="m 1256.7289,606.31423 0.1327,-5.80909 0.9856,-9.19859 4.5993,-5.91334 3.6137,-7.88451 5.2563,-8.54151 -0.9856,-11.82674 -3.6137,-5.58484 -0.657,-6.5704 1.6426,-11.1697 -0.9856,-14.12637 -2.6282,-32.52351 -2.6281,-31.20942 -1.9722,-23.81694 6.2409,1.80762 2.9567,1.97111 2.2997,-0.65703 4.2707,-3.94223 5.7502,-3.28598 10.3493,-0.32929 44.6788,-4.59931 11.3308,-1.08346 3.0546,32.42556 8.6394,74.86789 1.2162,11.72881 -0.7549,4.59929 2.4954,3.64848 0.1959,2.78924 -5.1237,3.25045 -7.1926,3.15251 -6.5073,1.11826 -1.2161,9.89038 -9.2965,6.73146 -5.6828,8.14986 0.657,4.82989 -1.1814,3.11774 h -6.7599 l -3.222,-3.28519 -5.0668,2.56499 -5.4522,3.05462 0.3285,6.20713 -2.426,0.52436 -0.9508,-2.06902 -4.4034,-3.05462 -6.6052,2.7261 -3.1525,6.10918 -2.9219,-1.6426 -2.9567,-3.25046 -9.0722,0.98558 -11.3656,1.97111 z" />
	<path id="IL" class="territory" d="m 1255.478,607.83049 v -7.32535 l 0.5244,-9.89037 4.8298,-6.37454 3.6138,-7.65393 5.2563,-7.84972 -0.755,-10.67371 -4.0749,-7.19907 -0.1959,-6.80099 1.412,-10.70848 -1.6773,-14.58759 -2.167,-32.06229 -2.6282,-30.51763 -1.8742,-23.65271 -0.5538,-1.87241 -1.6426,-5.25632 -2.6281,-7.55595 -3.2852,-3.61373 -2.9567,-5.2563 -0.4746,-11.15444 -20.1238,2.66668 -55.2871,3.48448 -17.6548,-0.87111 0.4646,4.82018 4.646,1.3938 1.8584,2.32298 0.9292,3.71678 7.8981,6.96897 1.3938,4.64598 -1.3938,6.96896 -3.7168,7.43356 -1.3937,5.11056 -4.646,3.7168 -3.7168,1.39379 -10.6857,2.78758 -1.3938,3.71678 -1.3938,4.18139 1.3938,2.78759 3.7167,3.25219 -0.4645,8.36274 -3.7168,3.25219 -1.3938,3.25218 v 5.57517 l -3.7168,0.92918 -3.2522,2.32301 -0.4646,2.78759 0.4646,4.18137 -3.4845,2.67142 -2.0907,5.69134 0.9292,7.43354 4.646,14.86713 14.8671,15.33173 11.1504,7.43356 -0.4646,8.82735 1.8584,2.7876 13.0087,0.92918 5.5752,2.7876 -1.3938,7.43355 -4.646,12.07954 -1.3938,6.50438 4.646,7.89815 13.0087,10.68574 9.292,1.3938 4.1813,10.22115 4.1814,6.50435 -1.8584,6.03976 3.2522,8.36276 3.7168,4.18139 3.9513,-1.61008 1.3954,-4.39592 4.1381,-2.92192 6.5767,-2.23648 6.2767,2.39755 5.8439,2.16697 1.6078,-0.42643 -0.1327,-2.5239 -2.167,-5.61961 0.8877,-4.82988 4.634,-3.18729 4.7952,-2.00587 2.3628,-0.85287 -1.1815,-2.69136 -1.5446,-4.40342 2.5302,-2.56501 z" />
	<path id="MN" class="territory" d="m 958.93337,256.00176 -0.9292,-17.19011 -3.71678,-14.86712 -3.71678,-27.41124 -0.9292,-19.97771 -3.71678,-6.96897 -3.25219,-10.22114 v -20.9069 l 1.39378,-7.89815 -3.70042,-11.07866 61.2339,0.0717 0.657,-16.75451 1.3141,-0.32852 4.5993,0.98556 3.9422,1.6426 1.6426,11.16967 2.9567,12.48375 3.2852,3.2852 h 9.8556 l 0.657,2.95667 12.8123,0.65704 v 4.27076 h 9.8556 l 0.657,-2.62816 2.2996,-2.29964 4.5993,-1.31407 2.6282,1.97111 h 5.9133 l 7.8845,5.25632 10.8412,4.92779 4.9278,0.98556 0.9855,-1.97112 2.9567,-0.98556 0.9856,5.91336 5.2563,2.62816 0.9855,-0.98556 2.6282,0.32852 v 4.27076 l 5.2563,1.97112 h 6.2419 l 3.2852,-1.6426 6.5704,-6.5704 5.2563,-0.98556 1.6426,3.61372 0.9856,2.62816 h 1.9711 l 1.9711,-1.6426 18.0686,-0.65704 3.6137,6.24188 h 1.3141 l 1.4502,-2.20343 9.0226,-0.75325 -1.2439,4.63222 -8.0041,3.73333 -18.7889,8.25286 -9.703,4.07834 -6.2419,5.25631 -4.9278,7.22744 -4.5993,7.88447 -3.6137,1.64261 -9.1986,10.18411 -2.6281,0.32852 -7.8069,5.96215 -5.7234,6.42347 -0.4646,6.03637 0.4612,15.80652 -3.2454,3.25219 -10.6857,8.35932 -3.7236,11.61837 5.1173,7.41315 0.9326,5.12078 -2.3331,6.04317 -0.4613,7.43695 0.9292,14.39572 6.9622,8.34577 h 6.0466 l 5.1004,4.65956 6.5077,2.774 7.437,10.23135 14.4025,10.20754 3.7202,4.19157 0.4748,11.18096 -41.8376,1.3938 -122.43505,0.9326 -0.68671,-72.50105 -0.92918,-6.03976 -8.36276,-6.96896 -2.32301,-3.71678 v -3.25221 l 4.18138,-3.25216 2.78759,-2.7876 z" />
	<path id="WI" class="territory" d="m 1245.5935,395.63207 0.7534,-6.03535 -3.2852,-9.19857 -1.314,-12.48373 -2.2997,-4.92781 1.9711,-6.24188 1.6426,-5.91335 2.9567,-5.25631 -1.3141,-6.89891 -1.3141,-7.22744 0.9856,-3.61373 3.9423,-4.9278 0.3285,-5.58484 -1.6426,-2.62815 1.3141,-5.25632 0.9855,-6.5704 5.5848,-11.49818 5.9134,-13.79783 0.3285,-4.59929 -0.657,-1.97111 -1.6426,0.98555 -8.5415,12.81228 -5.5849,8.21299 -3.9422,3.61373 -1.6426,4.59926 -2.9567,1.6426 -2.2996,3.94225 -2.9567,-0.65704 -0.3285,-3.61373 2.6281,-4.92778 4.2708,-9.52709 3.6137,-3.28519 2.2381,-4.65681 -3.3138,-1.83962 -2.7876,-2.78759 -3.2522,-20.9069 -7.4335,-2.32298 -2.7876,-4.64598 -25.5529,-5.57517 -5.1106,-2.32298 -16.7255,-4.64598 -16.7255,-2.323 -8.473,-10.98342 -1.0759,2.56278 -2.2996,-0.32852 -1.3141,-2.29963 -5.5848,-1.6426 -2.2997,0.32852 -3.6137,1.97111 -1.9711,-1.31407 1.3141,-3.94225 3.9422,-6.24188 2.2996,-2.29963 -3.9422,-2.95667 -4.2708,1.6426 -5.9133,3.94222 -15.1119,6.5704 -5.9134,1.31407 -5.9133,-0.98555 -1.9951,-1.78475 -4.3014,5.76154 -0.4646,5.57517 v 17.1901 l -2.323,3.2522 -10.6858,7.89813 -4.6459,12.07954 0.9292,0.46459 5.1105,4.1814 1.3938,6.50437 -3.7168,6.50435 v 7.89817 l 0.9292,13.47332 6.0398,6.03978 h 6.969 l 3.7168,6.50437 6.9689,0.92919 7.8982,11.61494 14.4025,8.36277 4.1814,5.57516 1.8584,15.09943 1.3938,6.73665 4.6459,3.25219 0.4646,2.78759 -4.1813,6.96895 0.4646,6.50439 5.1105,7.89815 5.1106,2.32298 6.0398,0.92919 2.7278,2.80462 18.642,-4e-5 52.9726,-3.02156 z" />
	<path id="MO" class="territory" d="m 1129.4509,502.00793 -5.1208,-6.27379 -2.323,-4.64598 -15.7963,1.3938 -19.9777,0.92918 -51.5703,1.85841 -27.4113,0.46459 -16.02854,0.2323 -4.64604,0.2323 2.55529,5.11057 -0.46459,4.64597 5.11056,7.89817 6.27202,8.36276 6.2721,5.57517 4.646,0.46459 2.7876,1.85841 v 6.03976 l -3.7168,3.25218 -0.9292,4.64597 4.1814,6.96898 5.1106,6.03976 5.1105,3.71678 2.7876,23.69447 -1.3938,71.78035 0.4646,9.52423 0.9292,10.94015 47.6196,-0.2374 47.1583,-1.3938 42.2784,-1.62778 23.6843,-0.468 4.4086,6.96217 -1.3904,6.72137 -6.2738,4.88336 -1.1632,3.73377 10.9299,0.92922 7.9152,-1.39381 3.4896,-11.16393 1.3238,-11.90193 4.7126,-4.11478 3.4793,-3.0216 4.1814,-2.09239 0.234,-5.81257 1.1666,-3.48619 -2.0958,-3.55276 -5.5785,0.29379 -4.4086,-5.3344 -2.791,-8.59333 1.6278,-5.11738 -3.9508,-6.96555 -3.7202,-9.29876 -9.7531,-1.62438 -14.1617,-11.37755 -3.493,-8.35935 1.6244,-6.50438 4.1847,-12.31015 0.9326,-5.81935 -3.9609,-2.09578 -13.9312,-1.621 -2.089,-3.47938 -0.2272,-8.59676 -11.1503,-6.97236 -14.1754,-15.79293 -4.6459,-14.86713 -0.468,-8.58652 z" />
	<path id="AR" class="territory" d="m 1200.9089,695.92861 -7.8184,1.9055 -12.5441,-0.92921 1.3938,-6.03976 6.5044,-5.57516 0.9292,-4.64599 -3.7168,-6.03978 -22.3007,0.92921 -42.2784,1.85839 -47.3889,1.39379 -47.389,0.92919 3.2522,13.93795 v 16.72552 l 2.7876,22.3009 0.4646,76.89066 4.646,3.94908 6.0397,-2.78758 5.5752,2.32299 0.8745,20.97859 46.5077,-0.28867 38.3343,-1.6278 20.5687,-0.40142 2.3281,-4.24796 -0.5825,-7.21317 -3.7099,-6.03978 3.2488,-3.01818 -3.2488,-5.10377 1.3904,-5.10038 2.7807,-11.39112 5.1174,-4.19159 -1.3938,-4.64259 7.4336,-10.91634 5.5752,-2.78078 -0.2307,-3.0352 -0.7019,-3.70999 5.8057,-11.37751 4.8834,-2.55359 0.7806,-6.96549 3.5983,-2.52333 1.7405,-8.60471 -2.7261,-8.14985 8.2131,-4.82986 1.1182,-4.10333 2.5103,-8.67241 z" />
	<path id="OK" class="territory" d="m 762.75701,650.44513 -21.72002,-0.92908 -13.06681,-0.98727 0.52267,0.4065 -1.4295,21.17936 44.63715,2.85901 65.14198,2.64912 -4.74427,49.62259 -0.92921,36.23862 0.46461,3.25218 8.82736,7.43356 4.18137,2.32298 1.3938,-0.46459 1.39379,-4.18139 2.7876,3.7168 h 4.18137 v -2.7876 l 5.57517,2.7876 -0.92919,7.89815 8.36276,0.46459 5.11056,2.323 8.36276,1.3938 5.11058,3.71678 4.64598,-4.18137 6.96896,1.39377 5.11058,6.96897 h 1.85837 v 4.64598 l 4.64598,1.39378 4.64597,-4.64596 3.71679,1.39377 h 5.11056 l 1.85841,5.1106 9.75654,3.71676 2.78759,-1.39378 3.71678,-8.36276 h 2.32298 l 2.323,4.18137 8.36277,1.3938 7.43353,2.78759 6.03978,1.85839 3.7168,-1.85839 1.39378,-5.11058 h 8.82735 l 4.18137,1.85839 5.57517,-4.18139 h 2.323 l 1.3938,3.25219 h 8.36272 l 3.2522,-4.18137 3.7168,0.92918 4.1814,5.1106 6.5043,3.71676 6.5044,1.85841 3.9446,2.27384 -0.7907,-75.63089 -2.7876,-22.30088 -0.3261,-18.03 -2.9261,-13.28571 -1.5814,-14.59017 -0.1384,-7.75517 -24.66399,0.64773 -94.31259,-0.92918 -91.52624,-4.18142 z" />
	<path id="KS" class="territory" d="m 1022.9495,655.64506 -25.6423,0.41543 -93.66037,-0.92916 -90.54789,-4.18143 -50.05155,-2.55526 8.42084,-131.52128 44.36906,1.62607 82.23318,2.78757 89.66793,0.92921 h 10.35513 l 6.59817,6.55351 5.6244,0.46459 1.8092,2.18451 v 4.08308 l -3.7168,3.2522 -0.9292,5.29819 4.5075,7.2951 5.1106,6.36586 5.1106,4.0429 2.1353,22.71613 z" />
	<path id="LA" class="territory" d="m 1223.7706,956.12917 -2.092,-5.31658 -2.323,-6.28396 -6.7383,-7.19616 1.8617,-13.71754 -0.2407,-2.31957 -2.5638,0.6952 -16.7256,1.85497 -50.8615,0.9326 -1.3904,-4.86637 1.855,-17.18333 6.7384,-12.08291 10.2245,-17.66154 -1.1666,-4.87316 2.5536,-1.38359 0.9326,-3.96777 -4.646,-4.17798 -0.2272,-3.94737 -3.7201,-8.83077 -0.9275,-12.07275 -19.7624,0.23061 -39.0262,1.85841 -45.1241,0.0581 0.058,19.45502 1.3938,19.0485 1.3938,7.89815 5.1106,8.36277 1.8584,10.22117 8.8274,11.15031 0.4645,6.50438 1.3938,1.39379 -1.3938,17.19012 -6.0397,10.22113 3.2522,4.18139 -1.3938,5.11056 -1.3938,14.86713 -2.7876,6.50435 0.2488,7.34921 9.5237,-3.08919 16.426,-0.65704 21.0253,7.22744 13.1408,2.29965 7.5559,-2.95669 6.5704,2.29965 6.5704,1.97111 1.6426,-4.27076 -6.5704,-2.29963 -5.2563,0.98555 -5.5849,-3.28518 c 0,0 0.3286,-2.62818 1.6427,-2.95669 1.314,-0.32852 6.2418,-1.97112 6.2418,-1.97112 l 3.6137,2.95667 3.6138,-1.97111 6.5704,1.31407 2.9566,4.92781 0.6571,4.59928 9.1985,0.65704 3.6138,3.61371 -1.6426,3.28521 -2.6282,1.64264 3.2852,3.28509 17.083,7.2275 7.2275,-2.6282 1.9711,-4.9278 5.2563,-1.3141 3.6137,-2.95662 2.6282,1.97112 1.6426,5.9134 -4.5993,1.6426 1.3141,1.314 6.8989,-2.6281 4.5993,-6.89889 1.6426,-0.98561 -4.2708,-0.65703 1.6426,-3.28521 -0.3285,-2.95667 4.2707,-0.98556 2.2997,-2.62817 1.3141,1.64259 c 0,0 -0.3286,6.24188 1.3141,6.24188 1.6425,0 8.5415,1.3141 8.5415,1.3141 l 8.213,3.94217 1.9711,2.9567 h 5.9133 l 2.2997,1.9712 4.5992,-6.24189 v -2.95672 h -2.6281 l -6.8989,-5.58482 -11.8267,-1.64262 -6.5704,-4.59926 2.2996,-5.58484 4.5993,0.65704 0.3285,-1.31408 -3.6137,-1.97111 v -0.98558 h 6.5704 l 3.6137,-6.24186 -2.6282,-3.94224 -0.657,-5.58485 -2.9567,0.32852 -3.9422,4.27077 -1.3141,5.25632 -6.2419,-1.31409 -1.9711,-3.61371 3.6137,-3.94225 4.1065,-3.61369 z" />
	<path id="VA" class="territory" d="m 1684.4702,542.07869 -0.2924,-3.95667 13.1144,-5.18176 -1.5656,6.53916 -5.9338,7.67975 -0.8496,9.31912 0.9383,6.88991 -3.7147,10.11642 -4.3981,3.8939 -2.988,-9.43087 0.9061,-11.07345 3.225,-8.50067 z m 4.6324,57.51287 -118.2192,25.55528 -76.0575,10.72791 -13.5715,-0.76242 -5.2536,3.91471 -14.9143,0.44847 -17.0338,1.98679 -18.1395,1.93402 17.2341,-10.05571 -0.027,-4.21659 3.089,-4.36128 21.447,-23.37274 8.0203,9.09892 7.6877,1.95896 5.1687,-2.31731 4.5464,-2.66449 5.1548,2.73025 7.9542,-2.90144 3.8138,-9.25921 5.2855,1.09741 5.8023,-4.33104 3.6564,1.00307 5.7454,-7.47137 0.7077,-4.23321 -1.9584,-2.59216 2.0378,-3.79329 10.7182,-24.94913 1.2534,-11.65459 2.4973,-1.06392 4.4271,4.9643 7.9983,-0.61203 3.9204,-15.39082 5.6779,-1.13975 2.1332,-5.57029 5.2426,-4.76924 2.5768,-4.75974 3.056,-6.81379 0.1726,-10.29807 19.9588,7.76858 c 1.3836,0.69179 1.3333,-9.72181 1.3333,-9.72181 l 8.2309,2.79899 -0.9388,5.34214 16.5745,5.97386 2.6273,3.64649 -1.7638,7.48269 -2.5668,2.69428 -1.0281,3.54823 1.0037,4.88271 3.981,2.59787 7.9622,2.9369 5.9921,1.96705 9.8691,1.91452 4.3739,4.24408 6.4835,0.818 1.764,2.43864 -0.8931,9.53099 2.7937,2.24055 -0.9733,3.92286 2.4983,1.60494 -0.4507,2.81373 -5.4746,-0.19285 0.1808,3.28299 4.6354,3.13536 0.247,2.8692 3.6032,3.62818 0.9994,5.12943 -5.1882,2.80705 3.195,3.03665 11.7886,-3.42587 z" />
	<path id="DC" class="territory" d="m 1638.595,506.61815 a 10.160796,10.160796 0 0 1 -10.1608,10.16079 10.160796,10.160796 0 0 1 -10.1608,-10.16079 10.160796,10.160796 0 0 1 10.1608,-10.1608 10.160796,10.160796 0 0 1 10.1608,10.1608 z" />
	<path id="PR" class="territory" d="m 1186.7373,1072.4434 c 0,0 1.7433,-4.3521 1.7433,-4.3521 0,0 3.4817,0.8704 3.4817,0.8704 0,0 3.4817,2.6113 3.4817,2.6113 0,0 14.8022,1.7408 14.8022,1.7408 0,0 14.8021,-0.8704 14.8021,-0.8704 0,0 6.0954,0 6.0954,0 0,0 5.2226,1.7408 5.2226,1.7408 0,0 3.4842,-2.6112 3.4842,-2.6112 0,0 4.3521,0 4.3521,0 0,0 10.4475,0.8704 10.4475,0.8704 0,0 10.4476,2.6113 10.4476,2.6113 0,0 3.4842,3.4841 3.4842,3.4841 0,0 6.093,0 6.093,0 0,0 0.8704,5.225 0.8704,5.225 0,0 -0.8704,3.4817 -0.8704,3.4817 0,0 -6.9634,0.8705 -6.9634,0.8705 0,0 -4.3546,1.7408 -4.3546,1.7408 0,0 -1.7433,4.3522 -1.7433,4.3522 0,0 -2.6113,4.3545 -2.6113,4.3545 0,0 -5.2226,2.6113 -5.2226,2.6113 0,0 -10.45,0 -10.45,0 0,0 -8.7042,0 -8.7042,0 0,0 -4.3522,-1.7408 -4.3522,-1.7408 0,0 0,0 0,0 0,0 -8.7067,0 -8.7067,0 0,0 -4.3546,-1.7409 -4.3546,-1.7409 0,0 -6.9658,1.7409 -6.9658,1.7409 0,0 -8.7067,0 -8.7067,0 0,0 -4.3522,-3.4818 -4.3522,-3.4818 0,0 -5.225,1.7409 -5.225,1.7409 0,0 -6.9658,0.8704 -6.9658,0.8704 0,0 -0.8705,-4.3545 -0.8705,-4.3545 0,0 1.7409,-2.6113 1.7409,-2.6113 0,0 1.7408,-4.3522 1.7408,-4.3522 0,0 -1.7408,-5.225 -1.7408,-5.225 0,0 -6.9634,-5.2249 -6.9634,-5.2249 0,0 2.6113,-1.7409 2.6113,-1.7409 z m 94.9256,23.5212 c 0,0 -3.7768,1.2589 -3.7768,1.2589 0,0 7.5535,2.5178 7.5535,2.5178 0,0 10.0714,-2.5178 10.0714,-2.5178 0,0 2.5178,-3.7768 2.5178,-3.7768 0,0 -6.2946,1.2589 -6.2946,1.2589 z m 17.6248,-8.8125 c 0,0 -3.1473,-1.8884 -3.1473,-1.8884 0,0 4.4062,-3.1472 4.4062,-3.1472 0,0 1.259,3.1472 1.259,3.1472 z" />
	<path id="VI" class="territory" d="m 1391.5172,1059.9189 c 0,0 -2.9653,2.2252 -2.9653,2.2252 0,0 -3.7055,2.2203 -3.7055,2.2203 0,0 0.7401,2.9654 0.7401,2.9654 0,0 3.7055,1.4802 3.7055,1.4802 0,0 5.1906,-0.7401 5.1906,-0.7401 0,0 2.2203,3.7079 2.2203,3.7079 0,0 3.7054,0 3.7054,0 0,0 2.2228,-2.2228 2.2228,-2.2228 0,0 8.1535,-1.4851 8.1535,-1.4851 0,0 3.703,-0.7401 3.703,-0.7401 0,0 2.9678,-2.2253 2.9678,-2.2253 0,0 -1.4827,-2.9604 -1.4827,-2.9604 0,0 -4.4456,0 -4.4456,0 0,0 -10.3787,-2.2252 -10.3787,-2.2252 z m 29.3683,2.8473 c 0,0 -0.5779,2.0162 -0.5779,2.0162 0,0 1.7335,1.0106 1.7335,1.0106 0,0 4.0521,-0.5041 4.0521,-0.5041 0,0 2.8941,1.5147 2.8941,1.5147 0,0 2.3138,-0.5065 2.3138,-0.5065 0,0 0.5803,-2.5253 0.5803,-2.5253 0,0 0,0 0,0 0,0 2.8915,-2.0162 2.8915,-2.0162 0,0 0.5803,-2.0187 0.5803,-2.0187 0,0 -2.3162,-1.0081 -2.3162,-1.0081 0,0 -3.4719,1.0081 -3.4719,1.0081 0,0 -4.0521,-1.5097 -4.0521,-1.5097 0,0 -1.7335,1.5097 -1.7335,1.5097 0,0 -0.5803,2.0187 -0.5803,2.0187 z m -10.7795,41.4952 c 0,0 5.2963,-1.3254 5.2963,-1.3254 0,0 3.312,0.6639 3.312,0.6639 0,0 4.6325,-2.6481 4.6325,-2.6481 0,0 1.9891,0.6614 1.9891,0.6614 0,0 1.3204,1.9867 1.3204,1.9867 0,0 1.9867,3.3121 1.9867,3.3121 0,0 3.9711,-1.9868 3.9711,-1.9868 0,0 1.9867,1.3229 1.9867,1.3229 0,0 8.6797,-1.195 8.6797,-1.195 0,0 0.986,4.9349 0.986,4.9349 0,0 -3.7055,1.554 -3.7055,1.554 0,0 -6.6192,0 -6.6192,0 0,0 -11.2565,3.312 -11.2565,3.312 0,0 -4.6324,-0.659 -4.6324,-0.659 0,0 -7.9469,1.3205 -7.9469,1.3205 0,0 -2.6457,-1.3205 -2.6457,-1.3205 0,0 -1.9868,1.3205 -1.9868,1.3205 0,0 -5.2988,0.6662 -5.2988,0.6662 0,0 -3.1251,-1.0105 -0.6614,-2.653 3.971,-2.6457 1.9867,-7.2806 1.9867,-7.2806 z" />
	<path id="GU" class="territory" d="m 1188.6956,1134.1786 c 0.085,0 0.1707,0 0.2559,0 0.8699,0 1.7061,0.2843 2.5591,0.4266 1.12,0.1867 1.6177,1.5272 2.5591,1.9196 1.0055,0.4189 1.2966,1.2939 2.0472,1.9195 0.2188,0.1823 0.4398,0.5498 0.5119,0.6399 1.4711,1.226 -1.5346,2.3993 1.7913,1.7063 0.075,-0.016 2.6342,0.9754 3.0709,1.0664 1.2574,0.262 2.6155,0.225 3.5827,0.4266 1.2219,0.2546 -1.2281,1.8338 -1.7913,2.7727 -0.5309,0.8849 -0.2559,2.2104 -0.2559,3.1993 0,1.2465 -0.2702,1.967 -0.5118,2.7727 -0.2918,0.9728 -0.9307,1.6288 -1.5355,2.1329 -0.6383,0.5319 -1.8317,1.0748 -2.815,1.2797 -1.3112,0.2732 -1.2066,1.0665 -3.0709,1.0665 -0.8915,0 -1.0127,2.1147 -1.2795,2.5594 -0.7785,1.2977 -2.3054,0.01 -2.815,1.7063 -0.3308,1.1027 -1.0115,1.0563 -1.7914,1.7063 -0.7332,0.6111 -1.836,0.9784 -2.5591,1.2797 -1.2375,0.5158 -2.0055,1.0664 -3.5827,1.0664 -0.6258,0 -1.8221,1.8827 -2.0472,2.1329 -0.7496,0.833 -1.1002,1.3435 -1.7914,1.9196 -0.3055,0.2546 -2.4162,-0.1898 -3.3268,0 -0.1329,0.028 0,2.9104 0,3.1993 0,0.502 -1.6704,1.2915 -1.7914,1.493 -0.2333,0.389 0.5119,2.5261 0.5119,3.1993 0,1.0483 -0.035,2.2488 -0.256,2.986 -0.2935,0.9785 -0.2517,2.1329 -1.5354,2.1329 -1.3426,0 0.7418,1.6847 1.0236,1.9196 0.4475,0.373 0.3562,2.2541 0.5118,2.7727 0.4188,1.3962 -0.7677,1.88 -0.7677,2.986 0,0.07 -2.063,1.1797 -2.3032,1.2798 -0.7342,0.3059 -1.4119,1.1767 -2.0472,1.7062 -0.9789,0.8159 -1.1859,1.2018 -2.0473,1.9196 -0.8406,0.7007 -2.0301,0.637 -3.3268,0.8532 -1.1871,0.1979 -2.1871,0.4266 -3.5827,0.4266 -0.7832,0 -1.8137,-1.2983 -2.3032,-1.7063 -1.1059,-0.9217 -1.4474,0.5066 -2.0472,-1.4931 -0.057,-0.19 -0.8303,-1.7014 -1.0237,-2.3461 -0.3458,-1.1528 -0.2506,-1.902 -0.5118,-2.7727 -0.2278,-0.7596 -0.9965,-1.1894 -1.2795,-2.1329 -0.3271,-1.0904 -0.1671,-2.1981 -0.7678,-3.1993 -0.6161,-1.0271 -1.7913,-0.6287 -1.7913,-2.3462 0,-1.4621 0.6938,-1.5831 1.2795,-2.5594 0.4013,-0.669 0.8116,-1.8524 1.0236,-2.5594 0.2134,-0.7114 1.1256,-1.8763 1.5355,-2.5595 0.1016,-0.1693 -0.2559,-0.8687 -0.2559,-1.2797 l -6.3977,-4.9056 c 1.1286,-1.8813 1.4017,-1.2033 3.3268,0 1.048,0.6551 1.897,0.6712 3.0709,0.4266 0.9657,-0.2012 0.909,-2.5607 0.909,-0.5457 0,1.4871 -0.3392,-0.2247 1.0317,-0.6398 2.3652,-0.7162 2.1404,-0.5857 0.1065,0.5456 -0.456,0.2537 2.142,0.9556 1.5355,-1.0664 -0.318,-1.0601 -2.0556,0.028 -1.5355,-1.7063 0.1911,-0.6371 3.9002,0.1727 4.0946,0.2133 1.1103,0.2313 1.9264,-1.2798 3.0709,-1.2798 1.1124,0 2.5061,-0.4266 3.8386,-0.4266 0.9869,0 2.7987,-0.4764 3.5827,-0.6398 1.5764,-0.3285 2.2742,-0.4085 3.3268,-1.0665 0.7226,-0.4516 -0.4475,-2.7716 -0.5118,-2.9859 -0.3318,-1.1062 3.5432,-0.01 3.5827,0 1.6524,0.2754 1.8384,-1.4367 2.0473,-2.1329 0.4145,-1.382 0.6332,-1.7569 2.0472,-2.3462 1.5659,-0.6525 2.0473,-1.6506 2.0473,-2.986 0,-2.0002 0.8849,-2.621 1.2796,-4.2657 0.2993,-1.2477 -0.293,-1.5941 0.7676,-2.7728 1.1195,-1.2439 1.9204,-1.7079 2.5592,-2.7727 0.5758,-0.96 0.5118,-1.7668 0.5118,-2.986 0,-1.1242 0.3165,-1.2293 -0.7678,-2.1329" />
	<path id="MP" class="territory" d="m 1389.6862,1130.2815 c 0,0 2.1844,-1.4637 2.1844,-1.4637 0,0 1.8303,-1.2149 1.8303,-1.2149 z m 0.1625,11.2949 c 0,0 4.0179,4.0179 4.0179,4.0179 0,0 -0.3571,-3.8043 -0.3571,-3.8043 z m 9.3689,12.0507 c 0,0 2.6786,6.6934 2.6786,6.6934 0,0 0,0 0,0 0,0 2.6786,-6.6934 2.6786,-6.6934 z m 10.7113,13.3868 c 0,0 0,6.6934 0,6.6934 0,0 4.0148,1.3392 4.0148,1.3392 0,0 1.3393,-6.6933 1.3393,-6.6933 z m 17.5706,17.1528 c 0,0 -3.5141,6.2724 -3.5141,6.2724 0,0 1.1703,3.7661 1.1703,3.7661 0,0 5.8579,2.5096 5.8579,2.5096 0,0 2.3438,-3.766 2.3438,-3.766 0,0 0,-6.2757 0,-6.2757 z" />
	<path id="AS" class="territory" d="m 1238.5942,1178.6613 c 0.4557,-0.2075 1.1162,-1.3103 1.4275,-1.8771 0.5261,-0.9579 -0.5093,-1.1475 0.793,-1.4439 0.6465,-0.1471 1.3799,0.823 1.5862,1.0108 0.5047,0.4594 0.831,0.8724 1.1103,-0.1445 0.1134,-0.413 1.4348,-1.846 1.9033,-2.1659 0.6226,-0.425 1.1394,-0.4596 1.7448,-1.0107 0.5054,-0.46 0.969,-0.8822 1.4275,-1.2995 0.573,-0.5216 0.876,-0.7286 1.2689,-1.4439 0.3665,-0.6672 0.8898,-1.0988 1.2689,-1.4439 0.8473,-0.7713 -2.0763,-0.4332 -3.3308,-0.4332 -0.3291,0 0.5701,-1.2957 0.6344,-1.5883 0.1915,-0.8717 0.4343,-0.8208 1.2689,-1.0107 1.192,-0.2713 1.2689,0.2738 1.2689,1.1551 0,0.5875 0.9538,-0.874 1.1103,-1.4439 0.2173,-0.7911 0.7417,-1.1318 1.4275,-1.4439 0.6741,-0.3068 1.4211,-0.5024 1.9034,-0.722 0.8425,-0.3834 0.8225,-0.3259 0.6345,-1.0107 -0.1159,-0.4217 0.1182,-1.302 0,-1.7327 -0.252,-0.9176 1.0229,-0.1589 0.4758,-1.1551 -0.2374,-0.4322 -1.6273,-0.7407 -1.9034,-0.8664 -0.7927,-0.3608 -1.5053,-0.2519 -2.2205,-0.5775 -0.8556,-0.3894 -0.6979,-0.6643 -0.1587,-1.1551 0.3026,-0.2755 1.9645,0.086 2.2205,0.1443 0.7538,0.1715 1.5551,0.1444 2.3793,0.1444 1.0641,0 1.6649,0.036 2.5377,0.4332 0.6561,0.2986 0.4759,0.8784 0.4759,1.7327 0,0.9417 -0.2787,1.3805 0.6345,1.5883 1.1106,0.2528 1.3397,0.06 2.0619,-0.4332 0.2952,-0.2016 2.322,-0.3938 2.5379,-0.4331 0.8551,-0.1557 1.3402,-0.4981 1.7447,-0.8664 0.5774,-0.5256 1.3443,-0.9349 1.7448,-1.2995 0.5934,-0.5402 1.1508,-0.6951 1.9033,-0.8664 0.9669,-0.22 1.3652,0.3764 1.7448,0.722 0.3837,0.3494 0.1587,1.5213 0.1587,2.0215 0,0.4485 2.9036,-0.6719 3.0136,-0.722 0.8492,-0.3865 1.3758,-0.2417 1.9034,-0.7219 0.7405,-0.6742 0.2444,-1.1356 1.4275,-0.8664 0.9012,0.2051 1.4499,-0.2577 2.2206,-0.4332 0.834,-0.1898 0.6344,-0.6938 0.6344,-1.5882 0,-0.722 0,-1.4439 0,-2.1659 0,-1.0201 -0.6363,-0.8307 -1.4275,-1.0107 -0.6527,-0.1486 -1.5553,0.2607 -1.9033,0.5775 -0.6804,0.6193 -0.8613,0.3929 -1.1103,1.2996 -0.233,0.8481 -0.3326,0.9455 -1.1103,1.2995 -0.3739,0.1701 -1.0686,-0.722 -1.9034,-0.722 -0.8996,0 -1.2458,-0.4949 -1.7447,-0.7219 -0.6997,-0.3185 -1.2465,-0.4332 -2.2206,-0.4332 -0.3533,0 -0.8729,0.8484 -1.5862,1.0107 -0.6411,0.1459 -1.8542,0 -2.0619,0 -0.6531,0 0.7573,-1.572 0.793,-1.5883 0.8777,-0.3994 1.9602,0.079 0.1585,-0.5775 -0.7033,-0.2562 -1.6788,0.1444 -2.3791,0.1444 -1.1555,0 -1.2689,0.1563 -1.2689,1.1552 0,0.9841 -0.59,0.8663 -1.5862,0.8663 -0.6166,0 -0.3535,-1.3078 -0.9517,-1.4439 -0.9859,-0.2244 -0.8961,0.6355 -1.2689,-0.722 -0.1461,-0.5323 -1.3185,0.045 -1.7447,0.4332 -0.4679,0.4259 -1.5079,-0.1622 -0.3172,-0.4332 1.019,-0.2319 -0.5036,-1.1551 -1.1103,-1.1551 -1.0588,0 -0.894,0.6519 -1.4276,1.2995 -0.53,0.6433 -1.3126,0.159 -1.5861,1.1552 -0.1386,0.5046 -1.2255,0.63 -1.7448,0.8663 -0.7899,0.3596 -1.388,0.704 -2.0619,1.0108 -0.9857,0.4486 -2.1982,0.2887 -3.3309,0.2887 -0.5912,0 0.3172,1.0502 0.3172,1.5883 0,0.722 0,1.4439 0,2.1659 0,1.1749 -0.1689,0.9047 -1.2689,1.1551 -0.5953,0.1355 -1.0468,-0.5776 -1.9034,-0.5776 -1.0445,0 -1.2689,0.454 -1.2689,1.2996 0,0.9249 -0.8745,0.398 -1.5861,0.7219 -0.8739,0.3978 -1.5861,0.5819 -1.5861,-0.4332 0,-0.7652 -0.8819,-0.8504 -1.5862,-1.0107 -1.0294,-0.2343 -1.0486,0.6939 -1.7447,1.0107 -0.7838,0.3568 -1.6256,0.2346 -2.3792,0.5776 -0.2061,0.094 -0.6396,-1.048 -1.1103,-1.1552 -0.8149,-0.1853 -1.9329,0.1151 -2.6964,0.2889 -0.9191,0.2091 -0.454,0.8663 -1.5862,0.8663 -0.8624,0 -1.5995,0.2227 -2.062,0.4332 -0.43,0.1957 0.7123,0.8663 -1.1102,0.8663 -1.1642,0 -1.3299,0.1109 -1.7448,0.8663 -0.4704,0.8564 -0.093,1.1403 -1.4275,1.4439 -0.4016,0.091 -1.1672,0.9291 -1.2689,1.2995 -0.1685,0.6135 -2.1233,0.5276 -0.6345,0.8664 0.8003,0.1821 1.4881,0.2304 2.3792,0.4332 0.7677,0.1747 1.7147,0.4917 2.2206,0.7219 0.5235,0.2383 1.914,-0.075 2.2206,-0.1445 0.7856,-0.1788 0.7336,-0.4602 1.7447,0 0.6142,0.2796 0.5204,1.031 1.1103,1.2996 0.5612,0.2554 2.2473,0.1445 2.8551,0.1445 0.1469,0 0.2695,1.8477 0.3172,2.0214 0.1166,0.4246 0.3162,1.2957 0.4759,1.8771 0.05,0.1835 1.5229,0.8088 1.7447,1.0107 0.44,0.4006 1.0272,0.5948 1.5861,0.7219 0.9098,0.2071 1.2733,0.1484 1.7448,0.5776 0.4874,0.4438 -0.097,1.2944 0.1587,1.8771 z" />

	<!-- US state/territory containers -->
	<path id="territory-container-1" class="extra-territory-containers" d="m 428.7856,996.78306 v 111.76884 l 73.15773,91.4481 m -501.94333,-341.40377 h 292.63093 l 136.15467,138.18683 h 174.76569 l 107.70444,109.73664 v 93.4803" />
	<path id="territory-container-2" class="extra-territory-containers" d="m 1070.5538,1200 v -157.1496 h 390.8537 v 157.1496 m -130.1127,-157.1496 -10e-5,157.1496 m -260.8124,-72.0888 h 389.0244 m -249.0244,0 v 73.9451" />

	<!-- Army placeholders -->
	<g id="armies-container">
		<circle id="WA-armies" class="army-placeholder" cx="242" cy="125" r="20" />
		<circle id="OR-armies" class="army-placeholder" cx="174.90845" cy="269.52939" r="15" />
		<circle id="CA-armies" class="army-placeholder" cx="136.6433" cy="568.3053" r="15" />
		<circle id="NV-armies" class="army-placeholder" cx="262.72079" cy="498.19748" r="15" />
		<circle id="ID-armies" class="army-placeholder" cx="369.67175" cy="310.83777" r="15" />
		<circle id="MT-armies" class="army-placeholder" cx="555.40686" cy="196.54826" r="15" />
		<circle id="WY-armies" class="army-placeholder" cx="603.69702" cy="399.37256" r="15" />
		<circle id="CO-armies" class="army-placeholder" cx="650.01868" cy="586.46692" r="15" />
		<circle id="UT-armies" class="army-placeholder" cx="439.13217" cy="546.09515" r="15" />
		<circle id="AZ-armies" class="army-placeholder" cx="396.59085" cy="773.30786" r="15" />
		<circle id="NM-armies" class="army-placeholder" cx="605.78168" cy="771.24255" r="15" />
		<circle id="TX-armies" class="army-placeholder" cx="867.85388" cy="924.4859" r="15" />
		<circle id="OK-armies" class="army-placeholder" cx="930.14703" cy="745.95367" r="15" />
		<circle id="KS-armies" class="army-placeholder" cx="890.65887" cy="613.3028" r="15" />
		<circle id="NE-armies" class="army-placeholder" cx="850.48743" cy="476.53534" r="15" />
		<circle id="SD-armies" class="army-placeholder" cx="845.83746" cy="345.46808" r="15" />
		<circle id="ND-armies" class="army-placeholder" cx="840.65448" cy="211.42595" r="15" />
		<circle id="MN-armies" class="army-placeholder" cx="1016.1161" cy="277.01526" r="15" />
		<circle id="IA-armies" class="army-placeholder" cx="1045.6149" cy="450.46878" r="15" />
		<circle id="MO-armies" class="army-placeholder" cx="1093.2828" cy="623.62439" r="15" />
		<circle id="AR-armies" class="army-placeholder" cx="1093.2828" cy="785.4364" r="15" />
		<circle id="LA-armies" class="army-placeholder" cx="1106.8585" cy="927.41327" r="15" />
		<circle id="MS-armies" class="army-placeholder" cx="1208.8541" cy="878.55731" r="15" />
		<circle id="AL-armies" class="army-placeholder" cx="1313.1316" cy="852.61334" r="15" />
		<circle id="TN-armies" class="army-placeholder" cx="1376.3342" cy="683.57587" r="15" />
		<circle id="KY-armies" class="army-placeholder" cx="1329.7922" cy="621.79193" r="15" />
		<circle id="NC-armies" class="army-placeholder" cx="1633.3469" cy="670.02179" r="15" />
		<circle id="SC-armies" class="army-placeholder" cx="1566.6959" cy="756.55127" r="15" />
		<circle id="GA-armies" class="army-placeholder" cx="1453.1648" cy="854.59467" r="15" />
		<circle id="FL-armies" class="army-placeholder" cx="1573.2804" cy="1055.2379" r="15" />
		<circle id="VA-armies" class="army-placeholder" cx="1561.6028" cy="599.46295" r="15" />
		<circle id="WV-armies" class="army-placeholder" cx="1515.4841" cy="517.55115" r="15" />
		<circle id="IL-armies" class="army-placeholder" cx="1205.1161" cy="531.67902" r="15" />
		<circle id="WI-armies" class="army-placeholder" cx="1173.3756" cy="341.5665" r="15" />
		<circle id="MI-armies" class="army-placeholder" cx="1333.8165" cy="387.52658" r="15" />
		<circle id="IN-armies" class="army-placeholder" cx="1304.3861" cy="534.48907" r="15" />
		<circle id="OH-armies" class="army-placeholder" cx="1420.9136" cy="511.84824" r="15" />
		<circle id="PA-armies" class="army-placeholder" cx="1539.7183" cy="446.54803" r="15" />
		<circle id="NY-armies" class="army-placeholder" cx="1605.6721" cy="338.06329" r="15" />
		<circle id="VT-armies" class="army-placeholder" cx="1715.4773" cy="244.25439" r="15" />
		<circle id="ME-armies" class="army-placeholder" cx="1806.3624" cy="191.24748" r="15" />
		<circle id="NH-armies" class="army-placeholder" cx="1760.817" cy="272.36818" r="15" />
		<circle id="MA-armies" class="army-placeholder" cx="1750.817" cy="314.11954" r="15" />
		<circle id="CT-armies" class="army-placeholder" cx="1744.9727" cy="355.00397" r="15" />
		<circle id="RI-armies" class="army-placeholder" cx="1782.5591" cy="341.05234" r="15" />
		<circle id="DC-armies" class="army-placeholder" cx="1628.4342" cy="506.61819" r="15" />
		<circle id="MD-armies" class="army-placeholder" cx="1640.9344" cy="479.77649" r="15" />
		<circle id="DE-armies" class="army-placeholder" cx="1685.4744" cy="498.62872" r="15" />
		<circle id="NJ-armies" class="army-placeholder" cx="1702.8898" cy="438.1835" r="15" />
		<circle id="AK-armies" class="army-placeholder" cx="224.65175" cy="1033.3293" r="15" />
		<circle id="HI-armies" class="army-placeholder" cx="673.5777" cy="1149.6248" r="15" />
		<circle id="PR-armies" class="army-placeholder" cx="1230.2733" cy="1085.1418" r="15" />
		<circle id="GU-armies" class="army-placeholder" cx="1164.485" cy="1171.0771" r="15" />
		<circle id="VI-armies" class="army-placeholder" cx="1415.5564" cy="1105.3043" r="15" />
		<circle id="MP-armies" class="army-placeholder" cx="1428.8857" cy="1175.6987" r="15" />
		<circle id="AS-armies" class="army-placeholder" cx="1239.9391" cy="1166.6727" r="15" />
	</g>

	<!-- State/territory labels -->
	<text id="WA-label" class="territory-label" x="205.680" y="93.130">WA</text>
	<text id="OR-label" class="territory-label" x="164.025" y="240.619">OR</text>
	<text id="CA-label" class="territory-label" x="90.241" y="505.960">CA</text>
	<text id="NV-label" class="territory-label" x="234.109" y="452.277">NV</text>
	<text id="ID-label" class="territory-label" x="352.197" y="257.136">ID</text>
	<text id="MT-label" class="territory-label" x="539.314" y="160.922">MT</text>
	<text id="WY-label" class="territory-label" x="574.560" y="352.268">WY</text>
	<text id="UT-label" class="territory-label" x="411.235" y="504.953">UT</text>
	<text id="AZ-label" class="territory-label" x="369.044" y="711.563">AZ</text>
	<text id="NM-label" class="territory-label" x="573.292" y="736.857">NM</text>
	<text id="CO-label" class="territory-label" x="612.874" y="539.620">CO</text>
	<text id="KS-label" class="territory-label" x="868.139" y="579.227">KS</text>
	<text id="TX-label" class="territory-label" x="839.968" y="891.896">TX</text>
	<text id="LA-label" class="territory-label" x="1086.056" y="898.599">LA</text>
	<text id="AR-label" class="territory-label" x="1073.048" y="738.316">AR</text>
	<text id="MS-label" class="territory-label" x="1180.390" y="817.912">MS</text>
	<text id="AL-label" class="territory-label" x="1292.069" y="817.844">AL</text>
	<text id="GA-label" class="territory-label" x="1420.650" y="815.317">GA</text>
	<text id="FL-label" class="territory-label" x="1517.407" y="1000">FL</text>
	<text id="SC-label" class="territory-label" x="1488.996" y="752.642">SC</text>
	<text id="NC-label" class="territory-label" x="1534.315" y="678.235">NC</text>
	<text id="TN-label" class="territory-label" x="1261.166" y="705.432">TN</text>
	<text id="MO-label" class="territory-label" x="1053.665" y="571.439">MO</text>
	<text id="IA-label" class="territory-label" x="1030.484" y="412.540">IA</text>
	<text id="NE-label" class="territory-label" x="819.015" y="444.112">NE</text>
	<text id="SD-label" class="territory-label" x="820.038" y="310.064">SD</text>
	<text id="ND-label" class="territory-label" x="810.459" y="170.343">ND</text>
	<text id="MN-label" class="territory-label" x="986.311" y="217.386">MN</text>
	<text id="WI-label" class="territory-label" x="1140.951" y="301.662">WI</text>
	<text id="IL-label" class="territory-label" x="1186.314" y="494.301">IL</text>
	<text id="OK-label" class="territory-label" x="893.097" y="712.132">OK</text>
	<text id="IN-label" class="territory-label" x="1285.991" y="495.638">IN</text>
	<text id="OH-label" class="territory-label" x="1381.546" y="475.088">OH</text>
	<text id="MI-label" class="territory-label" x="1306.055" y="348.676">MI</text>
	<text id="PA-label" class="territory-label" x="1568.447" y="417.468">PA</text>
	<text id="NY-label" class="territory-label" x="1624.083" y="296.597">NY</text>
	<text id="WV-label" class="territory-label" x="1461.778" y="576.094">WV</text>
	<text id="VA-label" class="territory-label" x="1569.376" y="578.976">VA</text>
	<text id="AK-label" class="territory-label" x="213.907" y="978.807">AK</text>
	<text id="HI-label" class="territory-label" x="529.005" y="1109.132">HI</text>
	<text id="KY-label" class="territory-label" x="1362.750" y="605.994">KY</text>
	<text id="ME-label" class="territory-label" x="1779.676" y="163.130">ME</text>
	<text id="VT-label" class="territory-label" x="1674.959" y="146.336">VT</text>
	<path id="VT-line" class="state-pointer-line" d="m 1699.6198,157.57216 19.7393,67.35061" />
	<text id="NH-label" class="territory-label" x="1840.181" y="290.213">NH</text>
	<path id="NH-line" class="state-pointer-line" d="m 1784.0549,278.58822 51.6161,0.46491" />
	<text id="MA-label" class="territory-label" x="1850.849" y="363.397">MA</text>
	<path id="MA-line" class="state-pointer-line" d="m 1801.0567,323.75405 49.307,27.95231" />
	<text id="RI-label" class="territory-label" x="1850.039" y="408.558">RI</text>
	<path id="RI-line" class="state-pointer-line" d="m 1789.3902,350.83138 56.2843,42.52433" />
	<text id="CT-label" class="territory-label" x="1846.390" y="450.467">CT</text>
	<path id="CT-line" class="state-pointer-line" d="m 1761.6717,354.98013 78.77,73.55882" />
	<text id="NJ-label" class="territory-label" x="1845.037" y="532.336">NJ</text>
	<path id="NJ-line" class="state-pointer-line" d="m 1710.4376,436.40956 128.8083,83.57217" />
	<text id="DE-label" class="territory-label" x="1841.977" y="605.753">DE</text>
	<path id="DE-line" class="state-pointer-line" d="m 1692.6064,500.80871 143.8274,91.22747" />
	<text id="MD-label" class="territory-label" x="1842.097" y="647.581">MD</text>
	<path id="MD-line" class="state-pointer-line" d="m 1694.6933,522.33629 141.1527,109.75168"/>
	<text id="PR-label" class="territory-label" x="1110" y="1100">PR</text>
	<text id="VI-label" class="territory-label" x="1340.662" y="1113.475">VI</text>
	<text id="GU-label" class="territory-label" x="1080" y="1180">GU</text>
	<text id="AS-label" class="territory-label" x="1268.274" y="1195.0">AS</text>
	<text id="MP-label" class="territory-label" x="1334.739" y="1195.0">MP</text>
	<text id="DC-label" class="territory-label" x="1841.643" y="696.186">DC</text>
	<path id="DC-line" class="state-pointer-line" d="m 1633.9901,510.7517 202.4437,165.56694" />

	<!-- Nations list -->
	<text id="nations-title" style="font-weight:bold" x="1945.247" y="45.673">Nations</text>
	<g id="nations-list">
		<rect id="nations-list-bounds" x="1942.5016" y="52.95293" width="539" height="1133" />
		<rect id="nation-color-placeholder-1" class="nation-color" style="fill:#393952" x="1949" y="61.445133" width="28" height="28" />
		<text id="text58" class="nation-name" x="1983" y="82">Test Nation (leader: Test User)</text>
		<rect id="nation-color-placeholder-2" class="nation-color" style="fill:#8b0000" x="1949" y="97" width="28" height="28" />
		<text id="text59" class="nation-name" x="1983" y="118">Test Nation 2 (leader: Test User 2)</text>
	</g>
</svg>
